<svg width="101" height="101" viewBox="0 0 101 101" fill="none" xmlns="http://www.w3.org/2000/svg">
<path d="M15.8643 14.8167C15.8643 15.1372 16.1249 15.3969 16.4464 15.3969C16.7679 15.3969 17.0285 15.1372 17.0285 14.8167C17.0285 14.4962 16.7679 14.2364 16.4464 14.2364C16.1249 14.2364 15.8643 14.4962 15.8643 14.8167ZM15.7997 14.8167C15.7997 14.4606 16.0892 14.172 16.4464 14.172C16.8036 14.172 17.0931 14.4606 17.0931 14.8167C17.0931 15.1728 16.8036 15.4614 16.4464 15.4614C16.0892 15.4614 15.7997 15.1728 15.7997 14.8167Z" fill="black"/>
<path d="M15.6315 22.6032C15.6315 23.0519 15.9963 23.4156 16.4464 23.4156C16.8964 23.4156 17.2613 23.0519 17.2613 22.6032C17.2613 22.1546 16.8964 21.7909 16.4464 21.7909C15.9963 21.7909 15.6315 22.1546 15.6315 22.6032ZM15.541 22.6032C15.541 22.1047 15.9463 21.7006 16.4464 21.7006C16.9464 21.7006 17.3518 22.1047 17.3518 22.6032C17.3518 23.1017 16.9464 23.5058 16.4464 23.5058C15.9463 23.5058 15.541 23.1017 15.541 22.6032Z" fill="black"/>
<path d="M15.3986 30.3898C15.3986 30.9666 15.8677 31.4343 16.4464 31.4343C17.025 31.4343 17.4941 30.9666 17.4941 30.3898C17.4941 29.8129 17.025 29.3453 16.4464 29.3453C15.8677 29.3453 15.3986 29.8129 15.3986 30.3898ZM15.2822 30.3898C15.2822 29.7489 15.8034 29.2293 16.4464 29.2293C17.0893 29.2293 17.6105 29.7489 17.6105 30.3898C17.6105 31.0307 17.0893 31.5503 16.4464 31.5503C15.8034 31.5503 15.2822 31.0307 15.2822 30.3898Z" fill="black"/>
<path d="M15.1658 38.1763C15.1658 38.8813 15.7392 39.4529 16.4464 39.4529C17.1536 39.4529 17.727 38.8813 17.727 38.1763C17.727 37.4713 17.1536 36.8997 16.4464 36.8997C15.7392 36.8997 15.1658 37.4713 15.1658 38.1763ZM15.0236 38.1763C15.0236 37.3929 15.6606 36.7579 16.4464 36.7579C17.2322 36.7579 17.8692 37.3929 17.8692 38.1763C17.8692 38.9597 17.2322 39.5947 16.4464 39.5947C15.6606 39.5947 15.0236 38.9597 15.0236 38.1763Z" fill="black"/>
<path d="M14.933 45.9629C14.933 46.796 15.6105 47.4715 16.4464 47.4715C17.2822 47.4715 17.9598 46.796 17.9598 45.9629C17.9598 45.1297 17.2822 44.4542 16.4464 44.4542C15.6105 44.4542 14.933 45.1297 14.933 45.9629ZM14.7649 45.9629C14.7649 45.037 15.5177 44.2866 16.4464 44.2866C17.3751 44.2866 18.1279 45.037 18.1279 45.9629C18.1279 46.8887 17.3751 47.6391 16.4464 47.6391C15.5177 47.6391 14.7649 46.8887 14.7649 45.9629Z" fill="black"/>
<path d="M14.7002 53.7494C14.7002 54.7108 15.482 55.4902 16.4464 55.4902C17.4108 55.4902 18.1926 54.7108 18.1926 53.7494C18.1926 52.788 17.4108 52.0086 16.4464 52.0086C15.482 52.0086 14.7002 52.788 14.7002 53.7494ZM14.5062 53.7494C14.5062 52.6812 15.3748 51.8152 16.4464 51.8152C17.518 51.8152 18.3866 52.6812 18.3866 53.7494C18.3866 54.8176 17.518 55.6836 16.4464 55.6836C15.3748 55.6836 14.5062 54.8176 14.5062 53.7494Z" fill="black"/>
<path d="M14.4673 61.5359C14.4673 62.6255 15.3534 63.5088 16.4464 63.5088C17.5394 63.5088 18.4254 62.6255 18.4254 61.5359C18.4254 60.4464 17.5394 59.5631 16.4464 59.5631C15.3534 59.5631 14.4673 60.4464 14.4673 61.5359ZM14.2474 61.5359C14.2474 60.3253 15.2319 59.3439 16.4464 59.3439C17.6608 59.3439 18.6453 60.3253 18.6453 61.5359C18.6453 62.7466 17.6608 63.728 16.4464 63.728C15.2319 63.728 14.2474 62.7466 14.2474 61.5359Z" fill="black"/>
<path d="M14.2345 69.3225C14.2345 70.5403 15.2248 71.5274 16.4464 71.5274C17.668 71.5274 18.6583 70.5403 18.6583 69.3225C18.6583 68.1047 17.668 67.1176 16.4464 67.1176C15.2248 67.1176 14.2345 68.1047 14.2345 69.3225ZM13.9887 69.3225C13.9887 67.9694 15.0891 66.8725 16.4464 66.8725C17.8037 66.8725 18.9041 67.9694 18.9041 69.3225C18.9041 70.6756 17.8037 71.7724 16.4464 71.7724C15.0891 71.7724 13.9887 70.6756 13.9887 69.3225Z" fill="black"/>
<path d="M14.0017 77.109C14.0017 78.4549 15.0962 79.5461 16.4464 79.5461C17.7966 79.5461 18.8911 78.4549 18.8911 77.109C18.8911 75.7631 17.7966 74.6719 16.4464 74.6719C15.0962 74.6719 14.0017 75.7631 14.0017 77.109ZM13.73 77.109C13.73 75.6135 14.9462 74.4012 16.4464 74.4012C17.9466 74.4012 19.1627 75.6135 19.1627 77.109C19.1627 78.6045 17.9466 79.8169 16.4464 79.8169C14.9462 79.8169 13.73 78.6045 13.73 77.109Z" fill="black"/>
<path d="M13.7688 84.8956C13.7688 86.3697 14.9676 87.5647 16.4464 87.5647C17.9251 87.5647 19.1239 86.3697 19.1239 84.8956C19.1239 83.4214 17.9251 82.2264 16.4464 82.2264C14.9676 82.2264 13.7688 83.4214 13.7688 84.8956ZM13.4713 84.8956C13.4713 83.2577 14.8033 81.9298 16.4464 81.9298C18.0895 81.9298 19.4214 83.2577 19.4214 84.8956C19.4214 86.5334 18.0895 87.8613 16.4464 87.8613C14.8033 87.8613 13.4713 86.5334 13.4713 84.8956Z" fill="black"/>
<path d="M23.7259 14.8167C23.7259 15.1093 23.9639 15.3465 24.2574 15.3465C24.5509 15.3465 24.7889 15.1093 24.7889 14.8167C24.7889 14.5241 24.5509 14.2869 24.2574 14.2869C23.9639 14.2869 23.7259 14.5241 23.7259 14.8167ZM23.6669 14.8167C23.6669 14.4916 23.9313 14.228 24.2574 14.228C24.5835 14.228 24.8479 14.4916 24.8479 14.8167C24.8479 15.1418 24.5835 15.4053 24.2574 15.4053C23.9313 15.4053 23.6669 15.1418 23.6669 14.8167Z" fill="black"/>
<path d="M23.5134 22.6032C23.5134 23.0129 23.8465 23.3449 24.2574 23.3449C24.6683 23.3449 25.0014 23.0129 25.0014 22.6032C25.0014 22.1936 24.6683 21.8616 24.2574 21.8616C23.8465 21.8616 23.5134 22.1936 23.5134 22.6032ZM23.4307 22.6032C23.4307 22.1481 23.8008 21.7791 24.2574 21.7791C24.7139 21.7791 25.0841 22.1481 25.0841 22.6032C25.0841 23.0584 24.7139 23.4274 24.2574 23.4274C23.8008 23.4274 23.4307 23.0584 23.4307 22.6032Z" fill="black"/>
<path d="M23.3008 30.3898C23.3008 30.9165 23.7291 31.3434 24.2574 31.3434C24.7857 31.3434 25.214 30.9165 25.214 30.3898C25.214 29.8631 24.7857 29.4362 24.2574 29.4362C23.7291 29.4362 23.3008 29.8631 23.3008 30.3898ZM23.1945 30.3898C23.1945 29.8045 23.6703 29.3302 24.2574 29.3302C24.8445 29.3302 25.3203 29.8045 25.3203 30.3898C25.3203 30.975 24.8445 31.4494 24.2574 31.4494C23.6703 31.4494 23.1945 30.975 23.1945 30.3898Z" fill="black"/>
<path d="M23.0882 38.1763C23.0882 38.82 23.6117 39.3419 24.2574 39.3419C24.9031 39.3419 25.4266 38.82 25.4266 38.1763C25.4266 37.5326 24.9031 37.0107 24.2574 37.0107C23.6117 37.0107 23.0882 37.5326 23.0882 38.1763ZM22.9583 38.1763C22.9583 37.461 23.5399 36.8813 24.2574 36.8813C24.9749 36.8813 25.5565 37.461 25.5565 38.1763C25.5565 38.8916 24.9749 39.4714 24.2574 39.4714C23.5399 39.4714 22.9583 38.8916 22.9583 38.1763Z" fill="black"/>
<path d="M22.8756 45.9629C22.8756 46.7237 23.4943 47.3403 24.2574 47.3403C25.0205 47.3403 25.6392 46.7237 25.6392 45.9629C25.6392 45.202 25.0205 44.5854 24.2574 44.5854C23.4943 44.5854 22.8756 45.202 22.8756 45.9629ZM22.7221 45.9629C22.7221 45.1176 23.4095 44.4323 24.2574 44.4323C25.1053 44.4323 25.7927 45.1176 25.7927 45.9629C25.7927 46.8081 25.1053 47.4934 24.2574 47.4934C23.4095 47.4934 22.7221 46.8081 22.7221 45.9629Z" fill="black"/>
<path d="M22.663 53.7494C22.663 54.6272 23.3769 55.3388 24.2574 55.3388C25.1379 55.3388 25.8518 54.6272 25.8518 53.7494C25.8518 52.8716 25.1379 52.16 24.2574 52.16C23.3769 52.16 22.663 52.8716 22.663 53.7494ZM22.4859 53.7494C22.4859 52.7741 23.279 51.9834 24.2574 51.9834C25.2358 51.9834 26.0289 52.7741 26.0289 53.7494C26.0289 54.7247 25.2358 55.5154 24.2574 55.5154C23.279 55.5154 22.4859 54.7247 22.4859 53.7494Z" fill="black"/>
<path d="M22.4504 61.5359C22.4504 62.5308 23.2595 63.3373 24.2574 63.3373C25.2553 63.3373 26.0644 62.5308 26.0644 61.5359C26.0644 60.5411 25.2553 59.7346 24.2574 59.7346C23.2595 59.7346 22.4504 60.5411 22.4504 61.5359ZM22.2497 61.5359C22.2497 60.4306 23.1485 59.5345 24.2574 59.5345C25.3662 59.5345 26.2651 60.4306 26.2651 61.5359C26.2651 62.6413 25.3662 63.5374 24.2574 63.5374C23.1485 63.5374 22.2497 62.6413 22.2497 61.5359Z" fill="black"/>
<path d="M22.2379 69.3225C22.2379 70.4343 23.1421 71.3357 24.2574 71.3357C25.3727 71.3357 26.2769 70.4343 26.2769 69.3225C26.2769 68.2106 25.3727 67.3093 24.2574 67.3093C23.1421 67.3093 22.2379 68.2106 22.2379 69.3225ZM22.0134 69.3225C22.0134 68.0871 23.0181 67.0856 24.2574 67.0856C25.4967 67.0856 26.5013 68.0871 26.5013 69.3225C26.5013 70.5579 25.4967 71.5594 24.2574 71.5594C23.0181 71.5594 22.0134 70.5579 22.0134 69.3225Z" fill="black"/>
<path d="M22.0252 77.109C22.0252 78.3379 23.0246 79.3342 24.2574 79.3342C25.4902 79.3342 26.4895 78.3379 26.4895 77.109C26.4895 75.8801 25.4902 74.8839 24.2574 74.8839C23.0246 74.8839 22.0252 75.8801 22.0252 77.109ZM21.7772 77.109C21.7772 75.7436 22.8877 74.6366 24.2574 74.6366C25.6271 74.6366 26.7375 75.7436 26.7375 77.109C26.7375 78.4745 25.6271 79.5814 24.2574 79.5814C22.8877 79.5814 21.7772 78.4745 21.7772 77.109Z" fill="black"/>
<path d="M21.8127 84.8956C21.8127 86.2415 22.9072 87.3327 24.2574 87.3327C25.6076 87.3327 26.7021 86.2415 26.7021 84.8956C26.7021 83.5496 25.6076 82.4584 24.2574 82.4584C22.9072 82.4584 21.8127 83.5496 21.8127 84.8956ZM21.541 84.8956C21.541 83.4001 22.7572 82.1877 24.2574 82.1877C25.7576 82.1877 26.9737 83.4001 26.9737 84.8956C26.9737 86.391 25.7576 87.6034 24.2574 87.6034C22.7572 87.6034 21.541 86.391 21.541 84.8956Z" fill="black"/>
<path d="M31.5876 14.8167C31.5876 15.0814 31.8028 15.296 32.0684 15.296C32.334 15.296 32.5492 15.0814 32.5492 14.8167C32.5492 14.5519 32.334 14.3374 32.0684 14.3374C31.8028 14.3374 31.5876 14.5519 31.5876 14.8167ZM31.5341 14.8167C31.5341 14.5225 31.7733 14.2841 32.0684 14.2841C32.3635 14.2841 32.6027 14.5225 32.6027 14.8167C32.6027 15.1109 32.3635 15.3493 32.0684 15.3493C31.7733 15.3493 31.5341 15.1109 31.5341 14.8167Z" fill="black"/>
<path d="M31.3952 22.6032C31.3952 22.9739 31.6966 23.2743 32.0684 23.2743C32.4402 23.2743 32.7416 22.9739 32.7416 22.6032C32.7416 22.2326 32.4402 21.9322 32.0684 21.9322C31.6966 21.9322 31.3952 22.2326 31.3952 22.6032ZM31.3204 22.6032C31.3204 22.1914 31.6553 21.8576 32.0684 21.8576C32.4815 21.8576 32.8164 22.1914 32.8164 22.6032C32.8164 23.0151 32.4815 23.3489 32.0684 23.3489C31.6553 23.3489 31.3204 23.0151 31.3204 22.6032Z" fill="black"/>
<path d="M31.2029 30.3898C31.2029 30.8663 31.5904 31.2526 32.0684 31.2526C32.5464 31.2526 32.9339 30.8663 32.9339 30.3898C32.9339 29.9132 32.5464 29.5269 32.0684 29.5269C31.5904 29.5269 31.2029 29.9132 31.2029 30.3898ZM31.1067 30.3898C31.1067 29.8603 31.5373 29.4311 32.0684 29.4311C32.5995 29.4311 33.0301 29.8603 33.0301 30.3898C33.0301 30.9193 32.5995 31.3485 32.0684 31.3485C31.5373 31.3485 31.1067 30.9193 31.1067 30.3898Z" fill="black"/>
<path d="M31.0106 38.1763C31.0106 38.7587 31.4842 39.2308 32.0684 39.2308C32.6526 39.2308 33.1262 38.7587 33.1262 38.1763C33.1262 37.594 32.6526 37.1218 32.0684 37.1218C31.4842 37.1218 31.0106 37.594 31.0106 38.1763ZM30.893 38.1763C30.893 37.5292 31.4192 37.0046 32.0684 37.0046C32.7176 37.0046 33.2438 37.5292 33.2438 38.1763C33.2438 38.8234 32.7176 39.348 32.0684 39.348C31.4192 39.348 30.893 38.8234 30.893 38.1763Z" fill="black"/>
<path d="M30.8182 45.9629C30.8182 46.6512 31.3779 47.2092 32.0684 47.2092C32.7589 47.2092 33.3186 46.6512 33.3186 45.9629C33.3186 45.2745 32.7589 44.7165 32.0684 44.7165C31.3779 44.7165 30.8182 45.2745 30.8182 45.9629ZM30.6793 45.9629C30.6793 45.1981 31.3012 44.5781 32.0684 44.5781C32.8356 44.5781 33.4575 45.1981 33.4575 45.9629C33.4575 46.7276 32.8356 47.3476 32.0684 47.3476C31.3012 47.3476 30.6793 46.7276 30.6793 45.9629Z" fill="black"/>
<path d="M30.6259 53.7494C30.6259 54.5435 31.2717 55.1874 32.0684 55.1874C32.8651 55.1874 33.5109 54.5435 33.5109 53.7494C33.5109 52.9552 32.8651 52.3114 32.0684 52.3114C31.2717 52.3114 30.6259 52.9552 30.6259 53.7494ZM30.4656 53.7494C30.4656 52.867 31.1832 52.1516 32.0684 52.1516C32.9536 52.1516 33.6712 52.867 33.6712 53.7494C33.6712 54.6318 32.9536 55.3472 32.0684 55.3472C31.1832 55.3472 30.4656 54.6318 30.4656 53.7494Z" fill="black"/>
<path d="M30.4336 61.5359C30.4336 62.4361 31.1654 63.1657 32.0684 63.1657C32.9714 63.1657 33.7032 62.4361 33.7032 61.5359C33.7032 60.6358 32.9714 59.9061 32.0684 59.9061C31.1654 59.9061 30.4336 60.6358 30.4336 61.5359ZM30.2519 61.5359C30.2519 60.5358 31.0652 59.7251 32.0684 59.7251C33.0716 59.7251 33.8849 60.5358 33.8849 61.5359C33.8849 62.536 33.0716 63.3468 32.0684 63.3468C31.0652 63.3468 30.2519 62.536 30.2519 61.5359Z" fill="black"/>
<path d="M30.2412 69.3225C30.2412 70.3285 31.0593 71.144 32.0684 71.144C33.0775 71.144 33.8956 70.3285 33.8956 69.3225C33.8956 68.3165 33.0775 67.501 32.0684 67.501C31.0593 67.501 30.2412 68.3165 30.2412 69.3225ZM30.0382 69.3225C30.0382 68.2047 30.9471 67.2986 32.0684 67.2986C33.1897 67.2986 34.0986 68.2047 34.0986 69.3225C34.0986 70.4402 33.1897 71.3464 32.0684 71.3464C30.9471 71.3464 30.0382 70.4402 30.0382 69.3225Z" fill="black"/>
<path d="M30.0489 77.109C30.0489 78.2209 30.9531 79.1222 32.0684 79.1222C33.1837 79.1222 34.0879 78.2209 34.0879 77.109C34.0879 75.9972 33.1837 75.0958 32.0684 75.0958C30.9531 75.0958 30.0489 75.9972 30.0489 77.109ZM29.8245 77.109C29.8245 75.8736 30.8291 74.8721 32.0684 74.8721C33.3077 74.8721 34.3123 75.8736 34.3123 77.109C34.3123 78.3444 33.3077 79.3459 32.0684 79.3459C30.8291 79.3459 29.8245 78.3444 29.8245 77.109Z" fill="black"/>
<path d="M29.8566 84.8956C29.8566 86.1134 30.8468 87.1005 32.0684 87.1005C33.29 87.1005 34.2802 86.1134 34.2802 84.8956C34.2802 83.6777 33.29 82.6906 32.0684 82.6906C30.8468 82.6906 29.8566 83.6777 29.8566 84.8956ZM29.6107 84.8956C29.6107 83.5425 30.7111 82.4456 32.0684 82.4456C33.4257 82.4456 34.5261 83.5425 34.5261 84.8956C34.5261 86.2486 33.4257 87.3455 32.0684 87.3455C30.7111 87.3455 29.6107 86.2486 29.6107 84.8956Z" fill="black"/>
<path d="M39.4492 14.8167C39.4492 15.0536 39.6418 15.2456 39.8794 15.2456C40.117 15.2456 40.3096 15.0536 40.3096 14.8167C40.3096 14.5798 40.117 14.3878 39.8794 14.3878C39.6418 14.3878 39.4492 14.5798 39.4492 14.8167ZM39.4014 14.8167C39.4014 14.5535 39.6154 14.3401 39.8794 14.3401C40.1434 14.3401 40.3574 14.5535 40.3574 14.8167C40.3574 15.0799 40.1434 15.2932 39.8794 15.2932C39.6154 15.2932 39.4014 15.0799 39.4014 14.8167Z" fill="black"/>
<path d="M39.2771 22.6032C39.2771 22.9349 39.5467 23.2037 39.8794 23.2037C40.2121 23.2037 40.4817 22.9349 40.4817 22.6032C40.4817 22.2716 40.2121 22.0028 39.8794 22.0028C39.5467 22.0028 39.2771 22.2716 39.2771 22.6032ZM39.2102 22.6032C39.2102 22.2348 39.5098 21.9361 39.8794 21.9361C40.249 21.9361 40.5487 22.2348 40.5487 22.6032C40.5487 22.9717 40.249 23.2704 39.8794 23.2704C39.5098 23.2704 39.2102 22.9717 39.2102 22.6032Z" fill="black"/>
<path d="M39.105 30.3898C39.105 30.8162 39.4517 31.1618 39.8794 31.1618C40.3071 31.1618 40.6538 30.8162 40.6538 30.3898C40.6538 29.9634 40.3071 29.6177 39.8794 29.6177C39.4517 29.6177 39.105 29.9634 39.105 30.3898ZM39.0189 30.3898C39.0189 29.916 39.4042 29.532 39.8794 29.532C40.3546 29.532 40.7399 29.916 40.7399 30.3898C40.7399 30.8635 40.3546 31.2475 39.8794 31.2475C39.4042 31.2475 39.0189 30.8635 39.0189 30.3898Z" fill="black"/>
<path d="M38.9329 38.1763C38.9329 38.6974 39.3567 39.1199 39.8794 39.1199C40.4021 39.1199 40.8259 38.6974 40.8259 38.1763C40.8259 37.6552 40.4021 37.2327 39.8794 37.2327C39.3567 37.2327 38.9329 37.6552 38.9329 38.1763ZM38.8277 38.1763C38.8277 37.5973 39.2986 37.1279 39.8794 37.1279C40.4602 37.1279 40.9311 37.5973 40.9311 38.1763C40.9311 38.7553 40.4602 39.2247 39.8794 39.2247C39.2986 39.2247 38.8277 38.7553 38.8277 38.1763Z" fill="black"/>
<path d="M38.7609 45.9628C38.7609 46.5787 39.2616 47.0779 39.8794 47.0779C40.4972 47.0779 40.9979 46.5787 40.9979 45.9628C40.9979 45.347 40.4972 44.8478 39.8794 44.8478C39.2616 44.8478 38.7609 45.347 38.7609 45.9628ZM38.6365 45.9628C38.6365 45.2786 39.193 44.7239 39.8794 44.7239C40.5658 44.7239 41.1223 45.2786 41.1223 45.9628C41.1223 46.6471 40.5658 47.2018 39.8794 47.2018C39.193 47.2018 38.6365 46.6471 38.6365 45.9628Z" fill="black"/>
<path d="M38.5887 53.7494C38.5887 54.46 39.1666 55.036 39.8794 55.036C40.5922 55.036 41.1701 54.46 41.1701 53.7494C41.1701 53.0388 40.5922 52.4628 39.8794 52.4628C39.1666 52.4628 38.5887 53.0388 38.5887 53.7494ZM38.4453 53.7494C38.4453 52.9598 39.0874 52.3198 39.8794 52.3198C40.6714 52.3198 41.3135 52.9598 41.3135 53.7494C41.3135 54.539 40.6714 55.179 39.8794 55.179C39.0874 55.179 38.4453 54.539 38.4453 53.7494Z" fill="black"/>
<path d="M38.4166 61.5359C38.4166 62.3413 39.0715 62.9942 39.8794 62.9942C40.6873 62.9942 41.3423 62.3413 41.3423 61.5359C41.3423 60.7306 40.6873 60.0777 39.8794 60.0777C39.0715 60.0777 38.4166 60.7306 38.4166 61.5359ZM38.2541 61.5359C38.2541 60.6411 38.9818 59.9157 39.8794 59.9157C40.777 59.9157 41.5047 60.6411 41.5047 61.5359C41.5047 62.4308 40.777 63.1562 39.8794 63.1562C38.9818 63.1562 38.2541 62.4308 38.2541 61.5359Z" fill="black"/>
<path d="M38.2445 69.3225C38.2445 70.2226 38.9765 70.9523 39.8794 70.9523C40.7824 70.9523 41.5143 70.2226 41.5143 69.3225C41.5143 68.4224 40.7824 67.6927 39.8794 67.6927C38.9765 67.6927 38.2445 68.4224 38.2445 69.3225ZM38.0629 69.3225C38.0629 68.3224 38.8762 67.5117 39.8794 67.5117C40.8827 67.5117 41.6959 68.3224 41.6959 69.3225C41.6959 70.3226 40.8827 71.1333 39.8794 71.1333C38.8762 71.1333 38.0629 70.3226 38.0629 69.3225Z" fill="black"/>
<path d="M38.0724 77.109C38.0724 78.1038 38.8815 78.9104 39.8794 78.9104C40.8773 78.9104 41.6864 78.1038 41.6864 77.109C41.6864 76.1142 40.8773 75.3077 39.8794 75.3077C38.8815 75.3077 38.0724 76.1142 38.0724 77.109ZM37.8717 77.109C37.8717 76.0036 38.7706 75.1076 39.8794 75.1076C40.9883 75.1076 41.8871 76.0036 41.8871 77.109C41.8871 78.2144 40.9883 79.1105 39.8794 79.1105C38.7706 79.1105 37.8717 78.2144 37.8717 77.109Z" fill="black"/>
<path d="M37.9003 84.8956C37.9003 85.9851 38.7864 86.8685 39.8794 86.8685C40.9724 86.8685 41.8585 85.9851 41.8585 84.8956C41.8585 83.806 40.9724 82.9227 39.8794 82.9227C38.7864 82.9227 37.9003 83.806 37.9003 84.8956ZM37.6805 84.8956C37.6805 83.6849 38.665 82.7035 39.8794 82.7035C41.0939 82.7035 42.0784 83.6849 42.0784 84.8956C42.0784 86.1062 41.0939 87.0876 39.8794 87.0876C38.665 87.0876 37.6805 86.1062 37.6805 84.8956Z" fill="black"/>
<path d="M47.3108 14.8167C47.3108 15.0257 47.4807 15.1951 47.6904 15.1951C47.9001 15.1951 48.07 15.0257 48.07 14.8167C48.07 14.6077 47.9001 14.4383 47.6904 14.4383C47.4807 14.4383 47.3108 14.6077 47.3108 14.8167ZM47.2686 14.8167C47.2686 14.5845 47.4575 14.3962 47.6904 14.3962C47.9233 14.3962 48.1122 14.5845 48.1122 14.8167C48.1122 15.0489 47.9233 15.2372 47.6904 15.2372C47.4575 15.2372 47.2686 15.0489 47.2686 14.8167Z" fill="black"/>
<path d="M47.159 22.6032C47.159 22.8959 47.3969 23.133 47.6904 23.133C47.984 23.133 48.2219 22.8959 48.2219 22.6032C48.2219 22.3106 47.984 22.0734 47.6904 22.0734C47.3969 22.0734 47.159 22.3106 47.159 22.6032ZM47.0999 22.6032C47.0999 22.2781 47.3643 22.0146 47.6904 22.0146C48.0165 22.0146 48.2809 22.2781 48.2809 22.6032C48.2809 22.9283 48.0165 23.1919 47.6904 23.1919C47.3643 23.1919 47.0999 22.9283 47.0999 22.6032Z" fill="black"/>
<path d="M47.0071 30.3898C47.0071 30.766 47.3131 31.0709 47.6904 31.0709C48.0678 31.0709 48.3737 30.766 48.3737 30.3898C48.3737 30.0135 48.0678 29.7086 47.6904 29.7086C47.3131 29.7086 47.0071 30.0135 47.0071 30.3898ZM46.9312 30.3898C46.9312 29.9718 47.2711 29.6329 47.6904 29.6329C48.1097 29.6329 48.4496 29.9718 48.4496 30.3898C48.4496 30.8078 48.1097 31.1466 47.6904 31.1466C47.2711 31.1466 46.9312 30.8078 46.9312 30.3898Z" fill="black"/>
<path d="M46.8553 38.1763C46.8553 38.6361 47.2292 39.0088 47.6904 39.0088C48.1517 39.0088 48.5256 38.6361 48.5256 38.1763C48.5256 37.7165 48.1517 37.3438 47.6904 37.3438C47.2292 37.3438 46.8553 37.7165 46.8553 38.1763ZM46.7625 38.1763C46.7625 37.6654 47.1779 37.2513 47.6904 37.2513C48.203 37.2513 48.6184 37.6654 48.6184 38.1763C48.6184 38.6872 48.203 39.1014 47.6904 39.1014C47.1779 39.1014 46.7625 38.6872 46.7625 38.1763Z" fill="black"/>
<path d="M46.7034 45.9629C46.7034 46.5063 47.1453 46.9468 47.6904 46.9468C48.2355 46.9468 48.6774 46.5063 48.6774 45.9629C48.6774 45.4194 48.2355 44.9789 47.6904 44.9789C47.1453 44.9789 46.7034 45.4194 46.7034 45.9629ZM46.5938 45.9629C46.5938 45.3591 47.0848 44.8696 47.6904 44.8696C48.2961 44.8696 48.7871 45.3591 48.7871 45.9629C48.7871 46.5666 48.2961 47.0561 47.6904 47.0561C47.0848 47.0561 46.5938 46.5666 46.5938 45.9629Z" fill="black"/>
<path d="M46.5516 53.7494C46.5516 54.3764 47.0614 54.8847 47.6904 54.8847C48.3194 54.8847 48.8293 54.3764 48.8293 53.7494C48.8293 53.1223 48.3194 52.6141 47.6904 52.6141C47.0614 52.6141 46.5516 53.1223 46.5516 53.7494ZM46.425 53.7494C46.425 53.0527 46.9916 52.488 47.6904 52.488C48.3893 52.488 48.9558 53.0527 48.9558 53.7494C48.9558 54.4461 48.3893 55.0108 47.6904 55.0108C46.9916 55.0108 46.425 54.4461 46.425 53.7494Z" fill="black"/>
<path d="M46.3997 61.5359C46.3997 62.2465 46.9776 62.8226 47.6904 62.8226C48.4032 62.8226 48.9811 62.2465 48.9811 61.5359C48.9811 60.8253 48.4032 60.2493 47.6904 60.2493C46.9776 60.2493 46.3997 60.8253 46.3997 61.5359ZM46.2563 61.5359C46.2563 60.7464 46.8984 60.1063 47.6904 60.1063C48.4824 60.1063 49.1245 60.7464 49.1245 61.5359C49.1245 62.3255 48.4824 62.9656 47.6904 62.9656C46.8984 62.9656 46.2563 62.3255 46.2563 61.5359Z" fill="black"/>
<path d="M46.2479 69.3225C46.2479 70.1166 46.8938 70.7605 47.6904 70.7605C48.4871 70.7605 49.133 70.1166 49.133 69.3225C49.133 68.5283 48.4871 67.8845 47.6904 67.8845C46.8938 67.8845 46.2479 68.5283 46.2479 69.3225ZM46.0876 69.3225C46.0876 68.44 46.8052 67.7247 47.6904 67.7247C48.5756 67.7247 49.2932 68.44 49.2932 69.3225C49.2932 70.2049 48.5756 70.9203 47.6904 70.9203C46.8052 70.9203 46.0876 70.2049 46.0876 69.3225Z" fill="black"/>
<path d="M46.096 77.109C46.096 77.9868 46.8099 78.6984 47.6904 78.6984C48.5709 78.6984 49.2848 77.9868 49.2848 77.109C49.2848 76.2312 48.5709 75.5196 47.6904 75.5196C46.8099 75.5196 46.096 76.2312 46.096 77.109ZM45.9189 77.109C45.9189 76.1338 46.7121 75.343 47.6904 75.343C48.6687 75.343 49.4619 76.1338 49.4619 77.109C49.4619 78.0843 48.6687 78.875 47.6904 78.875C46.7121 78.875 45.9189 78.0843 45.9189 77.109Z" fill="black"/>
<path d="M45.9442 84.8956C45.9442 85.857 46.726 86.6363 47.6904 86.6363C48.6548 86.6363 49.4366 85.857 49.4366 84.8956C49.4366 83.9342 48.6548 83.1548 47.6904 83.1548C46.726 83.1548 45.9442 83.9342 45.9442 84.8956ZM45.7502 84.8956C45.7502 83.8273 46.6188 82.9614 47.6904 82.9614C48.762 82.9614 49.6307 83.8273 49.6307 84.8956C49.6307 85.9638 48.762 86.8297 47.6904 86.8297C46.6188 86.8297 45.7502 85.9638 45.7502 84.8956Z" fill="black"/>
<path d="M55.1724 14.8167C55.1724 14.9978 55.3197 15.1447 55.5014 15.1447C55.6831 15.1447 55.8304 14.9978 55.8304 14.8167C55.8304 14.6356 55.6831 14.4887 55.5014 14.4887C55.3197 14.4887 55.1724 14.6356 55.1724 14.8167ZM55.1359 14.8167C55.1359 14.6154 55.2995 14.4523 55.5014 14.4523C55.7033 14.4523 55.867 14.6154 55.867 14.8167C55.867 15.018 55.7033 15.1811 55.5014 15.1811C55.2995 15.1811 55.1359 15.018 55.1359 14.8167Z" fill="black"/>
<path d="M55.0409 22.6032C55.0409 22.8568 55.247 23.0624 55.5014 23.0624C55.7558 23.0624 55.962 22.8568 55.962 22.6032C55.962 22.3496 55.7558 22.1441 55.5014 22.1441C55.247 22.1441 55.0409 22.3496 55.0409 22.6032ZM54.9896 22.6032C54.9896 22.3214 55.2188 22.0931 55.5014 22.0931C55.784 22.0931 56.0132 22.3214 56.0132 22.6032C56.0132 22.885 55.784 23.1134 55.5014 23.1134C55.2188 23.1134 54.9896 22.885 54.9896 22.6032Z" fill="black"/>
<path d="M54.9092 30.3898C54.9092 30.7158 55.1744 30.9801 55.5014 30.9801C55.8285 30.9801 56.0937 30.7158 56.0937 30.3898C56.0937 30.0637 55.8285 29.7994 55.5014 29.7994C55.1744 29.7994 54.9092 30.0637 54.9092 30.3898ZM54.8434 30.3898C54.8434 30.0275 55.1381 29.7338 55.5014 29.7338C55.8648 29.7338 56.1594 30.0275 56.1594 30.3898C56.1594 30.752 55.8648 31.0457 55.5014 31.0457C55.1381 31.0457 54.8434 30.752 54.8434 30.3898Z" fill="black"/>
<path d="M54.7776 38.1763C54.7776 38.5748 55.1017 38.8979 55.5014 38.8979C55.9011 38.8979 56.2253 38.5748 56.2253 38.1763C56.2253 37.7778 55.9011 37.4547 55.5014 37.4547C55.1017 37.4547 54.7776 37.7778 54.7776 38.1763ZM54.6972 38.1763C54.6972 37.7335 55.0572 37.3746 55.5014 37.3746C55.9456 37.3746 56.3056 37.7335 56.3056 38.1763C56.3056 38.6191 55.9456 38.978 55.5014 38.978C55.0572 38.978 54.6972 38.6191 54.6972 38.1763Z" fill="black"/>
<path d="M54.646 45.9629C54.646 46.4338 55.029 46.8156 55.5014 46.8156C55.9738 46.8156 56.3568 46.4338 56.3568 45.9629C56.3568 45.4919 55.9738 45.1101 55.5014 45.1101C55.029 45.1101 54.646 45.4919 54.646 45.9629ZM54.551 45.9629C54.551 45.4395 54.9764 45.0154 55.5014 45.0154C56.0264 45.0154 56.4519 45.4395 56.4519 45.9629C56.4519 46.4862 56.0264 46.9103 55.5014 46.9103C54.9764 46.9103 54.551 46.4862 54.551 45.9629Z" fill="black"/>
<path d="M54.5144 53.7494C54.5144 54.2928 54.9563 54.7333 55.5014 54.7333C56.0466 54.7333 56.4884 54.2928 56.4884 53.7494C56.4884 53.206 56.0466 52.7655 55.5014 52.7655C54.9563 52.7655 54.5144 53.206 54.5144 53.7494ZM54.4048 53.7494C54.4048 53.1456 54.8958 52.6562 55.5014 52.6562C56.1071 52.6562 56.5981 53.1456 56.5981 53.7494C56.5981 54.3532 56.1071 54.8426 55.5014 54.8426C54.8958 54.8426 54.4048 54.3532 54.4048 53.7494Z" fill="black"/>
<path d="M54.3829 61.5359C54.3829 62.1518 54.8837 62.651 55.5014 62.651C56.1192 62.651 56.62 62.1518 56.62 61.5359C56.62 60.9201 56.1192 60.4209 55.5014 60.4209C54.8837 60.4209 54.3829 60.9201 54.3829 61.5359ZM54.2585 61.5359C54.2585 60.8517 54.815 60.2969 55.5014 60.2969C56.1879 60.2969 56.7443 60.8517 56.7443 61.5359C56.7443 62.2202 56.1879 62.7749 55.5014 62.7749C54.815 62.7749 54.2585 62.2202 54.2585 61.5359Z" fill="black"/>
<path d="M54.2512 69.3225C54.2512 70.0108 54.8109 70.5688 55.5014 70.5688C56.1919 70.5688 56.7516 70.0108 56.7516 69.3225C56.7516 68.6342 56.1919 68.0762 55.5014 68.0762C54.8109 68.0762 54.2512 68.6342 54.2512 69.3225ZM54.1123 69.3225C54.1123 68.5577 54.7342 67.9377 55.5014 67.9377C56.2686 67.9377 56.8905 68.5577 56.8905 69.3225C56.8905 70.0873 56.2686 70.7072 55.5014 70.7072C54.7342 70.7072 54.1123 70.0873 54.1123 69.3225Z" fill="black"/>
<path d="M54.1197 77.109C54.1197 77.8698 54.7382 78.4865 55.5014 78.4865C56.2646 78.4865 56.8832 77.8698 56.8832 77.109C56.8832 76.3482 56.2646 75.7316 55.5014 75.7316C54.7382 75.7316 54.1197 76.3482 54.1197 77.109ZM53.9661 77.109C53.9661 76.2638 54.6535 75.5785 55.5014 75.5785C56.3493 75.5785 57.0368 76.2638 57.0368 77.109C57.0368 77.9543 56.3493 78.6395 55.5014 78.6395C54.6535 78.6395 53.9661 77.9543 53.9661 77.109Z" fill="black"/>
<path d="M53.988 84.8956C53.988 85.7287 54.6656 86.4042 55.5014 86.4042C56.3372 86.4042 57.0148 85.7287 57.0148 84.8956C57.0148 84.0624 56.3372 83.3869 55.5014 83.3869C54.6656 83.3869 53.988 84.0624 53.988 84.8956ZM53.8199 84.8956C53.8199 83.9697 54.5727 83.2193 55.5014 83.2193C56.4301 83.2193 57.183 83.9697 57.183 84.8956C57.183 85.8214 56.4301 86.5719 55.5014 86.5719C54.5727 86.5719 53.8199 85.8214 53.8199 84.8956Z" fill="black"/>
<path d="M63.034 14.8167C63.034 14.9699 63.1586 15.0942 63.3124 15.0942C63.4662 15.0942 63.5908 14.9699 63.5908 14.8167C63.5908 14.6635 63.4662 14.5392 63.3124 14.5392C63.1586 14.5392 63.034 14.6635 63.034 14.8167ZM63.0031 14.8167C63.0031 14.6464 63.1416 14.5083 63.3124 14.5083C63.4833 14.5083 63.6217 14.6464 63.6217 14.8167C63.6217 14.987 63.4833 15.125 63.3124 15.125C63.1416 15.125 63.0031 14.987 63.0031 14.8167Z" fill="black"/>
<path d="M62.9227 22.6032C62.9227 22.8178 63.0972 22.9918 63.3124 22.9918C63.5277 22.9918 63.7021 22.8178 63.7021 22.6032C63.7021 22.3886 63.5277 22.2147 63.3124 22.2147C63.0972 22.2147 62.9227 22.3886 62.9227 22.6032ZM62.8794 22.6032C62.8794 22.3648 63.0733 22.1715 63.3124 22.1715C63.5516 22.1715 63.7455 22.3648 63.7455 22.6032C63.7455 22.8417 63.5516 23.0349 63.3124 23.0349C63.0733 23.0349 62.8794 22.8417 62.8794 22.6032Z" fill="black"/>
<path d="M62.8114 30.3898C62.8114 30.6656 63.0357 30.8893 63.3124 30.8893C63.5892 30.8893 63.8135 30.6656 63.8135 30.3898C63.8135 30.1139 63.5892 29.8903 63.3124 29.8903C63.0357 29.8903 62.8114 30.1139 62.8114 30.3898ZM62.7557 30.3898C62.7557 30.0832 63.0049 29.8347 63.3124 29.8347C63.6199 29.8347 63.8692 30.0832 63.8692 30.3898C63.8692 30.6963 63.6199 30.9448 63.3124 30.9448C63.0049 30.9448 62.7557 30.6963 62.7557 30.3898Z" fill="black"/>
<path d="M62.7 38.1763C62.7 38.5135 62.9742 38.7869 63.3124 38.7869C63.6506 38.7869 63.9249 38.5135 63.9249 38.1763C63.9249 37.8391 63.6506 37.5658 63.3124 37.5658C62.9742 37.5658 62.7 37.8391 62.7 38.1763ZM62.6319 38.1763C62.6319 37.8016 62.9366 37.4979 63.3124 37.4979C63.6883 37.4979 63.9929 37.8016 63.9929 38.1763C63.9929 38.551 63.6883 38.8547 63.3124 38.8547C62.9366 38.8547 62.6319 38.551 62.6319 38.1763Z" fill="black"/>
<path d="M62.5886 45.9629C62.5886 46.3614 62.9127 46.6844 63.3124 46.6844C63.7121 46.6844 64.0363 46.3614 64.0363 45.9629C64.0363 45.5643 63.7121 45.2413 63.3124 45.2413C62.9127 45.2413 62.5886 45.5643 62.5886 45.9629ZM62.5082 45.9629C62.5082 45.52 62.8682 45.1612 63.3124 45.1612C63.7566 45.1612 64.1166 45.52 64.1166 45.9629C64.1166 46.4057 63.7566 46.7646 63.3124 46.7646C62.8682 46.7646 62.5082 46.4057 62.5082 45.9629Z" fill="black"/>
<path d="M62.4773 53.7494C62.4773 54.2092 62.8512 54.5819 63.3124 54.5819C63.7737 54.5819 64.1476 54.2092 64.1476 53.7494C64.1476 53.2896 63.7737 52.9169 63.3124 52.9169C62.8512 52.9169 62.4773 53.2896 62.4773 53.7494ZM62.3845 53.7494C62.3845 53.2384 62.7999 52.8244 63.3124 52.8244C63.825 52.8244 64.2404 53.2384 64.2404 53.7494C64.2404 54.2603 63.825 54.6744 63.3124 54.6744C62.7999 54.6744 62.3845 54.2603 62.3845 53.7494Z" fill="black"/>
<path d="M62.366 61.5359C62.366 62.057 62.7897 62.4794 63.3124 62.4794C63.8351 62.4794 64.2589 62.057 64.2589 61.5359C64.2589 61.0149 63.8351 60.5924 63.3124 60.5924C62.7897 60.5924 62.366 61.0149 62.366 61.5359ZM62.2608 61.5359C62.2608 60.9569 62.7316 60.4876 63.3124 60.4876C63.8933 60.4876 64.3641 60.9569 64.3641 61.5359C64.3641 62.115 63.8933 62.5843 63.3124 62.5843C62.7316 62.5843 62.2608 62.115 62.2608 61.5359Z" fill="black"/>
<path d="M62.2546 69.3225C62.2546 69.9048 62.7282 70.377 63.3124 70.377C63.8966 70.377 64.3703 69.9048 64.3703 69.3225C64.3703 68.7401 63.8966 68.268 63.3124 68.268C62.7282 68.268 62.2546 68.7401 62.2546 69.3225ZM62.137 69.3225C62.137 68.6753 62.6633 68.1508 63.3124 68.1508C63.9616 68.1508 64.4878 68.6753 64.4878 69.3225C64.4878 69.9696 63.9616 70.4942 63.3124 70.4942C62.6633 70.4942 62.137 69.9696 62.137 69.3225Z" fill="black"/>
<path d="M62.1432 77.109C62.1432 77.7527 62.6667 78.2746 63.3124 78.2746C63.9582 78.2746 64.4817 77.7527 64.4817 77.109C64.4817 76.4653 63.9582 75.9435 63.3124 75.9435C62.6667 75.9435 62.1432 76.4653 62.1432 77.109ZM62.0133 77.109C62.0133 76.3938 62.5949 75.814 63.3124 75.814C64.0299 75.814 64.6116 76.3938 64.6116 77.109C64.6116 77.8243 64.0299 78.4041 63.3124 78.4041C62.5949 78.4041 62.0133 77.8243 62.0133 77.109Z" fill="black"/>
<path d="M62.0318 84.8956C62.0318 85.6006 62.6051 86.1722 63.3124 86.1722C64.0197 86.1722 64.593 85.6006 64.593 84.8956C64.593 84.1905 64.0197 83.619 63.3124 83.619C62.6051 83.619 62.0318 84.1905 62.0318 84.8956ZM61.8896 84.8956C61.8896 84.1122 62.5266 83.4772 63.3124 83.4772C64.0983 83.4772 64.7353 84.1122 64.7353 84.8956C64.7353 85.679 64.0983 86.314 63.3124 86.314C62.5266 86.314 61.8896 85.679 61.8896 84.8956Z" fill="black"/>
<path d="M70.8957 14.8167C70.8957 14.942 70.9977 15.0437 71.1234 15.0437C71.2492 15.0437 71.3512 14.942 71.3512 14.8167C71.3512 14.6912 71.2492 14.5896 71.1234 14.5896C70.9977 14.5896 70.8957 14.6912 70.8957 14.8167ZM70.8704 14.8167C70.8704 14.6773 70.9837 14.5644 71.1234 14.5644C71.2632 14.5644 71.3765 14.6773 71.3765 14.8167C71.3765 14.956 71.2632 15.069 71.1234 15.069C70.9837 15.069 70.8704 14.956 70.8704 14.8167Z" fill="black"/>
<path d="M70.8046 22.6032C70.8046 22.7788 70.9473 22.9212 71.1234 22.9212C71.2996 22.9212 71.4423 22.7788 71.4423 22.6032C71.4423 22.4276 71.2996 22.2853 71.1234 22.2853C70.9473 22.2853 70.8046 22.4276 70.8046 22.6032ZM70.7691 22.6032C70.7691 22.4082 70.9278 22.25 71.1234 22.25C71.3191 22.25 71.4777 22.4082 71.4777 22.6032C71.4777 22.7983 71.3191 22.9564 71.1234 22.9564C70.9278 22.9564 70.7691 22.7983 70.7691 22.6032Z" fill="black"/>
<path d="M70.7134 30.3898C70.7134 30.6155 70.8971 30.7985 71.1234 30.7985C71.3498 30.7985 71.5334 30.6155 71.5334 30.3898C71.5334 30.164 71.3498 29.9811 71.1234 29.9811C70.8971 29.9811 70.7134 30.164 70.7134 30.3898ZM70.6679 30.3898C70.6679 30.139 70.8718 29.9357 71.1234 29.9357C71.375 29.9357 71.579 30.139 71.579 30.3898C71.579 30.6406 71.375 30.8439 71.1234 30.8439C70.8718 30.8439 70.6679 30.6406 70.6679 30.3898Z" fill="black"/>
<path d="M70.6224 38.1763C70.6224 38.4522 70.8467 38.6758 71.1234 38.6758C71.4002 38.6758 71.6245 38.4522 71.6245 38.1763C71.6245 37.9004 71.4002 37.6768 71.1234 37.6768C70.8467 37.6768 70.6224 37.9004 70.6224 38.1763ZM70.5667 38.1763C70.5667 37.8698 70.8159 37.6213 71.1234 37.6213C71.431 37.6213 71.6802 37.8698 71.6802 38.1763C71.6802 38.4829 71.431 38.7313 71.1234 38.7313C70.8159 38.7313 70.5667 38.4829 70.5667 38.1763Z" fill="black"/>
<path d="M70.5312 45.9629C70.5312 46.289 70.7964 46.5532 71.1234 46.5532C71.4506 46.5532 71.7157 46.289 71.7157 45.9629C71.7157 45.6368 71.4506 45.3725 71.1234 45.3725C70.7964 45.3725 70.5312 45.6368 70.5312 45.9629ZM70.4654 45.9629C70.4654 45.6006 70.7601 45.3069 71.1234 45.3069C71.4868 45.3069 71.7814 45.6006 71.7814 45.9629C71.7814 46.3251 71.4868 46.6188 71.1234 46.6188C70.7601 46.6188 70.4654 46.3251 70.4654 45.9629Z" fill="black"/>
<path d="M70.4401 53.7494C70.4401 54.1256 70.7461 54.4306 71.1234 54.4306C71.5008 54.4306 71.8067 54.1256 71.8067 53.7494C71.8067 53.3732 71.5008 53.0682 71.1234 53.0682C70.7461 53.0682 70.4401 53.3732 70.4401 53.7494ZM70.3642 53.7494C70.3642 53.3314 70.7041 52.9925 71.1234 52.9925C71.5427 52.9925 71.8827 53.3314 71.8827 53.7494C71.8827 54.1674 71.5427 54.5063 71.1234 54.5063C70.7041 54.5063 70.3642 54.1674 70.3642 53.7494Z" fill="black"/>
<path d="M70.349 61.5359C70.349 61.9623 70.6957 62.3079 71.1234 62.3079C71.5512 62.3079 71.8978 61.9623 71.8978 61.5359C71.8978 61.1096 71.5512 60.764 71.1234 60.764C70.6957 60.764 70.349 61.1096 70.349 61.5359ZM70.263 61.5359C70.263 61.0622 70.6482 60.6782 71.1234 60.6782C71.5987 60.6782 71.9839 61.0622 71.9839 61.5359C71.9839 62.0097 71.5987 62.3937 71.1234 62.3937C70.6482 62.3937 70.263 62.0097 70.263 61.5359Z" fill="black"/>
<path d="M70.2579 69.3225C70.2579 69.799 70.6454 70.1853 71.1234 70.1853C71.6015 70.1853 71.989 69.799 71.989 69.3225C71.989 68.8459 71.6015 68.4597 71.1234 68.4597C70.6454 68.4597 70.2579 68.8459 70.2579 69.3225ZM70.1617 69.3225C70.1617 68.793 70.5923 68.3638 71.1234 68.3638C71.6546 68.3638 72.0852 68.793 72.0852 69.3225C72.0852 69.852 71.6546 70.2812 71.1234 70.2812C70.5923 70.2812 70.1617 69.852 70.1617 69.3225Z" fill="black"/>
<path d="M70.1668 77.109C70.1668 77.6357 70.5951 78.0626 71.1234 78.0626C71.6518 78.0626 72.0801 77.6357 72.0801 77.109C72.0801 76.5823 71.6518 76.1554 71.1234 76.1554C70.5951 76.1554 70.1668 76.5823 70.1668 77.109ZM70.0605 77.109C70.0605 76.5238 70.5364 76.0494 71.1234 76.0494C71.7105 76.0494 72.1864 76.5238 72.1864 77.109C72.1864 77.6943 71.7105 78.1686 71.1234 78.1686C70.5364 78.1686 70.0605 77.6943 70.0605 77.109Z" fill="black"/>
<path d="M70.0757 84.8956C70.0757 85.4724 70.5448 85.9401 71.1234 85.9401C71.7021 85.9401 72.1712 85.4724 72.1712 84.8956C72.1712 84.3187 71.7021 83.8511 71.1234 83.8511C70.5448 83.8511 70.0757 84.3187 70.0757 84.8956ZM69.9593 84.8956C69.9593 84.2546 70.4805 83.7351 71.1234 83.7351C71.7664 83.7351 72.2876 84.2546 72.2876 84.8956C72.2876 85.5365 71.7664 86.0561 71.1234 86.0561C70.4805 86.0561 69.9593 85.5365 69.9593 84.8956Z" fill="black"/>
<path d="M78.7573 14.8167C78.7573 14.9142 78.8366 14.9933 78.9344 14.9933C79.0323 14.9933 79.1116 14.9142 79.1116 14.8167C79.1116 14.7192 79.0323 14.6401 78.9344 14.6401C78.8366 14.6401 78.7573 14.7192 78.7573 14.8167ZM78.7376 14.8167C78.7376 14.7083 78.8257 14.6205 78.9344 14.6205C79.0432 14.6205 79.1313 14.7083 79.1313 14.8167C79.1313 14.925 79.0432 15.0129 78.9344 15.0129C78.8257 15.0129 78.7376 14.925 78.7376 14.8167Z" fill="black"/>
<path d="M78.6864 22.6032C78.6864 22.7397 78.7974 22.8504 78.9344 22.8504C79.0714 22.8504 79.1824 22.7397 79.1824 22.6032C79.1824 22.4667 79.0714 22.356 78.9344 22.356C78.7974 22.356 78.6864 22.4667 78.6864 22.6032ZM78.6589 22.6032C78.6589 22.4515 78.7823 22.3285 78.9344 22.3285C79.0866 22.3285 79.21 22.4515 79.21 22.6032C79.21 22.7549 79.0866 22.8779 78.9344 22.8779C78.7823 22.8779 78.6589 22.7549 78.6589 22.6032Z" fill="black"/>
<path d="M78.6156 30.3898C78.6156 30.5654 78.7583 30.7077 78.9344 30.7077C79.1106 30.7077 79.2533 30.5654 79.2533 30.3898C79.2533 30.2142 79.1106 30.0718 78.9344 30.0718C78.7583 30.0718 78.6156 30.2142 78.6156 30.3898ZM78.5801 30.3898C78.5801 30.1947 78.7388 30.0366 78.9344 30.0366C79.1301 30.0366 79.2887 30.1947 79.2887 30.3898C79.2887 30.5848 79.1301 30.743 78.9344 30.743C78.7388 30.743 78.5801 30.5848 78.5801 30.3898Z" fill="black"/>
<path d="M78.5447 38.1763C78.5447 38.3909 78.7192 38.5649 78.9344 38.5649C79.1497 38.5649 79.3241 38.3909 79.3241 38.1763C79.3241 37.9617 79.1497 37.7878 78.9344 37.7878C78.7192 37.7878 78.5447 37.9617 78.5447 38.1763ZM78.5014 38.1763C78.5014 37.9379 78.6953 37.7446 78.9344 37.7446C79.1736 37.7446 79.3675 37.9379 79.3675 38.1763C79.3675 38.4147 79.1736 38.608 78.9344 38.608C78.6953 38.608 78.5014 38.4147 78.5014 38.1763Z" fill="black"/>
<path d="M78.4739 45.9629C78.4739 46.2165 78.68 46.4219 78.9344 46.4219C79.1888 46.4219 79.395 46.2165 79.395 45.9629C79.395 45.7092 79.1888 45.5038 78.9344 45.5038C78.68 45.5038 78.4739 45.7092 78.4739 45.9629ZM78.4227 45.9629C78.4227 45.6811 78.6518 45.4527 78.9344 45.4527C79.217 45.4527 79.4462 45.6811 79.4462 45.9629C79.4462 46.2446 79.217 46.473 78.9344 46.473C78.6518 46.473 78.4227 46.2446 78.4227 45.9629Z" fill="black"/>
<path d="M78.403 53.7494C78.403 54.042 78.6409 54.2792 78.9344 54.2792C79.228 54.2792 79.4659 54.042 79.4659 53.7494C79.4659 53.4568 79.228 53.2196 78.9344 53.2196C78.6409 53.2196 78.403 53.4568 78.403 53.7494ZM78.3439 53.7494C78.3439 53.4243 78.6083 53.1607 78.9344 53.1607C79.2606 53.1607 79.525 53.4243 79.525 53.7494C79.525 54.0745 79.2606 54.3381 78.9344 54.3381C78.6083 54.3381 78.3439 54.0745 78.3439 53.7494Z" fill="black"/>
<path d="M78.3321 61.5359C78.3321 61.8676 78.6018 62.1364 78.9344 62.1364C79.2671 62.1364 79.5367 61.8676 79.5367 61.5359C79.5367 61.2043 79.2671 60.9355 78.9344 60.9355C78.6018 60.9355 78.3321 61.2043 78.3321 61.5359ZM78.2652 61.5359C78.2652 61.1675 78.5648 60.8688 78.9344 60.8688C79.304 60.8688 79.6037 61.1675 79.6037 61.5359C79.6037 61.9044 79.304 62.2031 78.9344 62.2031C78.5648 62.2031 78.2652 61.9044 78.2652 61.5359Z" fill="black"/>
<path d="M78.2613 69.3225C78.2613 69.6931 78.5626 69.9935 78.9344 69.9935C79.3062 69.9935 79.6076 69.6931 79.6076 69.3225C79.6076 68.9519 79.3062 68.6514 78.9344 68.6514C78.5626 68.6514 78.2613 68.9519 78.2613 69.3225ZM78.1865 69.3225C78.1865 68.9107 78.5213 68.5768 78.9344 68.5768C79.3476 68.5768 79.6824 68.9107 79.6824 69.3225C79.6824 69.7343 79.3476 70.0681 78.9344 70.0681C78.5213 70.0681 78.1865 69.7343 78.1865 69.3225Z" fill="black"/>
<path d="M78.1904 77.109C78.1904 77.5187 78.5235 77.8507 78.9344 77.8507C79.3454 77.8507 79.6784 77.5187 79.6784 77.109C79.6784 76.6994 79.3454 76.3674 78.9344 76.3674C78.5235 76.3674 78.1904 76.6994 78.1904 77.109ZM78.1077 77.109C78.1077 76.6538 78.4778 76.2849 78.9344 76.2849C79.3911 76.2849 79.7611 76.6538 79.7611 77.109C79.7611 77.5642 79.3911 77.9332 78.9344 77.9332C78.4778 77.9332 78.1077 77.5642 78.1077 77.109Z" fill="black"/>
<path d="M78.1195 84.8956C78.1195 85.3442 78.4844 85.7079 78.9344 85.7079C79.3845 85.7079 79.7494 85.3442 79.7494 84.8956C79.7494 84.4469 79.3845 84.0832 78.9344 84.0832C78.4844 84.0832 78.1195 84.4469 78.1195 84.8956ZM78.029 84.8956C78.029 84.3971 78.4344 83.9929 78.9344 83.9929C79.4345 83.9929 79.8399 84.3971 79.8399 84.8956C79.8399 85.3941 79.4345 85.7982 78.9344 85.7982C78.4344 85.7982 78.029 85.3941 78.029 84.8956Z" fill="black"/>
<path d="M86.6189 14.817C86.6189 14.8866 86.6754 14.9429 86.7451 14.9429C86.8148 14.9429 86.8713 14.8866 86.8713 14.817C86.8713 14.7475 86.8148 14.6912 86.7451 14.6912C86.6754 14.6912 86.6189 14.7475 86.6189 14.817ZM86.6048 14.817C86.6048 14.7398 86.6676 14.6772 86.7451 14.6772C86.8225 14.6772 86.8853 14.7398 86.8853 14.817C86.8853 14.8942 86.8225 14.9569 86.7451 14.9569C86.6676 14.9569 86.6048 14.8942 86.6048 14.817Z" fill="black"/>
<path d="M86.5683 22.6032C86.5683 22.7007 86.6476 22.7798 86.7454 22.7798C86.8433 22.7798 86.9226 22.7007 86.9226 22.6032C86.9226 22.5057 86.8433 22.4266 86.7454 22.4266C86.6476 22.4266 86.5683 22.5057 86.5683 22.6032ZM86.5486 22.6032C86.5486 22.4948 86.6367 22.407 86.7454 22.407C86.8542 22.407 86.9423 22.4948 86.9423 22.6032C86.9423 22.7116 86.8542 22.7994 86.7454 22.7994C86.6367 22.7994 86.5486 22.7116 86.5486 22.6032Z" fill="black"/>
<path d="M86.5177 30.3898C86.5177 30.5151 86.6197 30.6168 86.7454 30.6168C86.8712 30.6168 86.9732 30.5151 86.9732 30.3898C86.9732 30.2644 86.8712 30.1627 86.7454 30.1627C86.6197 30.1627 86.5177 30.2644 86.5177 30.3898ZM86.4924 30.3898C86.4924 30.2504 86.6057 30.1375 86.7454 30.1375C86.8852 30.1375 86.9985 30.2504 86.9985 30.3898C86.9985 30.5291 86.8852 30.642 86.7454 30.642C86.6057 30.642 86.4924 30.5291 86.4924 30.3898Z" fill="black"/>
<path d="M86.4671 38.1763C86.4671 38.3296 86.5916 38.4538 86.7454 38.4538C86.8992 38.4538 87.0238 38.3296 87.0238 38.1763C87.0238 38.0231 86.8992 37.8988 86.7454 37.8988C86.5916 37.8988 86.4671 38.0231 86.4671 38.1763ZM86.4361 38.1763C86.4361 38.006 86.5746 37.868 86.7454 37.868C86.9163 37.868 87.0548 38.006 87.0548 38.1763C87.0548 38.3466 86.9163 38.4847 86.7454 38.4847C86.5746 38.4847 86.4361 38.3466 86.4361 38.1763Z" fill="black"/>
<path d="M86.4164 45.9629C86.4164 46.144 86.5638 46.2908 86.7454 46.2908C86.9271 46.2908 87.0744 46.144 87.0744 45.9629C87.0744 45.7817 86.9271 45.6349 86.7454 45.6349C86.5638 45.6349 86.4164 45.7817 86.4164 45.9629ZM86.3799 45.9629C86.3799 45.7616 86.5435 45.5984 86.7454 45.5984C86.9474 45.5984 87.111 45.7616 87.111 45.9629C87.111 46.1641 86.9474 46.3273 86.7454 46.3273C86.5435 46.3273 86.3799 46.1641 86.3799 45.9629Z" fill="black"/>
<path d="M86.3658 53.7494C86.3658 53.9585 86.5358 54.1278 86.7454 54.1278C86.9551 54.1278 87.125 53.9585 87.125 53.7494C87.125 53.5403 86.9551 53.371 86.7454 53.371C86.5358 53.371 86.3658 53.5403 86.3658 53.7494ZM86.3236 53.7494C86.3236 53.5172 86.5125 53.3289 86.7454 53.3289C86.9784 53.3289 87.1672 53.5172 87.1672 53.7494C87.1672 53.9816 86.9784 54.1699 86.7454 54.1699C86.5125 54.1699 86.3236 53.9816 86.3236 53.7494Z" fill="black"/>
<path d="M86.3152 61.5359C86.3152 61.7728 86.5078 61.9648 86.7454 61.9648C86.9831 61.9648 87.1757 61.7728 87.1757 61.5359C87.1757 61.2991 86.9831 61.1071 86.7454 61.1071C86.5078 61.1071 86.3152 61.2991 86.3152 61.5359ZM86.2674 61.5359C86.2674 61.2728 86.4814 61.0594 86.7454 61.0594C87.0095 61.0594 87.2235 61.2728 87.2235 61.5359C87.2235 61.7991 87.0095 62.0125 86.7454 62.0125C86.4814 62.0125 86.2674 61.7991 86.2674 61.5359Z" fill="black"/>
<path d="M86.2646 69.3225C86.2646 69.5872 86.4799 69.8018 86.7454 69.8018C87.0109 69.8018 87.2263 69.5872 87.2263 69.3225C87.2263 69.0578 87.0109 68.8431 86.7454 68.8431C86.4799 68.8431 86.2646 69.0578 86.2646 69.3225ZM86.2112 69.3225C86.2112 69.0284 86.4504 68.7899 86.7454 68.7899C87.0405 68.7899 87.2797 69.0284 87.2797 69.3225C87.2797 69.6166 87.0405 69.8551 86.7454 69.8551C86.4504 69.8551 86.2112 69.6166 86.2112 69.3225Z" fill="black"/>
<path d="M86.214 77.109C86.214 77.4016 86.4519 77.6388 86.7454 77.6388C87.039 77.6388 87.2769 77.4016 87.2769 77.109C87.2769 76.8164 87.039 76.5792 86.7454 76.5792C86.4519 76.5792 86.214 76.8164 86.214 77.109ZM86.1549 77.109C86.1549 76.7839 86.4193 76.5204 86.7454 76.5204C87.0716 76.5204 87.336 76.7839 87.336 77.109C87.336 77.4341 87.0716 77.6977 86.7454 77.6977C86.4193 77.6977 86.1549 77.4341 86.1549 77.109Z" fill="black"/>
<path d="M86.1634 84.8956C86.1634 85.216 86.424 85.4758 86.7454 85.4758C87.0669 85.4758 87.3275 85.216 87.3275 84.8956C87.3275 84.5751 87.0669 84.3153 86.7454 84.3153C86.424 84.3153 86.1634 84.5751 86.1634 84.8956ZM86.0987 84.8956C86.0987 84.5395 86.3883 84.2508 86.7454 84.2508C87.1026 84.2508 87.3922 84.5395 87.3922 84.8956C87.3922 85.2516 87.1026 85.5403 86.7454 85.5403C86.3883 85.5403 86.0987 85.2516 86.0987 84.8956Z" fill="black"/>
<path d="M12.2709 10.9234C12.2709 10.7747 12.3918 10.654 12.5409 10.654C12.69 10.654 12.8108 10.7747 12.8108 10.9234C12.8108 11.0721 12.69 11.1925 12.5409 11.1925C12.3918 11.1925 12.2709 11.0721 12.2709 10.9234Z" fill="black"/>
<path d="M12.136 18.71C12.136 18.487 12.3172 18.3063 12.5409 18.3063C12.7645 18.3063 12.9458 18.487 12.9458 18.71C12.9458 18.9329 12.7645 19.1136 12.5409 19.1136C12.3172 19.1136 12.136 18.9329 12.136 18.71Z" fill="black"/>
<path d="M12.001 26.4965C12.001 26.1993 12.2427 25.9583 12.5409 25.9583C12.839 25.9583 13.0808 26.1993 13.0808 26.4965C13.0808 26.7937 12.839 27.0347 12.5409 27.0347C12.2427 27.0347 12.001 26.7937 12.001 26.4965Z" fill="black"/>
<path d="M11.866 34.283C11.866 33.9115 12.1682 33.6103 12.5409 33.6103C12.9136 33.6103 13.2158 33.9115 13.2158 34.283C13.2158 34.6545 12.9136 34.9558 12.5409 34.9558C12.1682 34.9558 11.866 34.6545 11.866 34.283Z" fill="black"/>
<path d="M11.731 42.0696C11.731 41.6237 12.0936 41.2623 12.5409 41.2623C12.9882 41.2623 13.3508 41.6237 13.3508 42.0696C13.3508 42.5155 12.9882 42.8769 12.5409 42.8769C12.0936 42.8769 11.731 42.5155 11.731 42.0696Z" fill="black"/>
<path d="M11.5961 49.8561C11.5961 49.3359 12.0191 48.9143 12.5409 48.9143C13.0627 48.9143 13.4857 49.3359 13.4857 49.8561C13.4857 50.3764 13.0627 50.798 12.5409 50.798C12.0191 50.798 11.5961 50.3764 11.5961 49.8561Z" fill="black"/>
<path d="M11.4611 57.6427C11.4611 57.0482 11.9445 56.5663 12.5409 56.5663C13.1372 56.5663 13.6207 57.0482 13.6207 57.6427C13.6207 58.2372 13.1372 58.7191 12.5409 58.7191C11.9445 58.7191 11.4611 58.2372 11.4611 57.6427Z" fill="black"/>
<path d="M11.3261 65.4292C11.3261 64.7604 11.87 64.2182 12.5409 64.2182C13.2118 64.2182 13.7557 64.7604 13.7557 65.4292C13.7557 66.098 13.2118 66.6402 12.5409 66.6402C11.87 66.6402 11.3261 66.098 11.3261 65.4292Z" fill="black"/>
<path d="M11.1912 73.2158C11.1912 72.4726 11.7955 71.8702 12.5409 71.8702C13.2863 71.8702 13.8906 72.4726 13.8906 73.2158C13.8906 73.9589 13.2863 74.5613 12.5409 74.5613C11.7955 74.5613 11.1912 73.9589 11.1912 73.2158Z" fill="black"/>
<path d="M11.0562 81.0023C11.0562 80.1849 11.7209 79.5222 12.5409 79.5222C13.3609 79.5222 14.0256 80.1849 14.0256 81.0023C14.0256 81.8197 13.3609 82.4823 12.5409 82.4823C11.7209 82.4823 11.0562 81.8197 11.0562 81.0023Z" fill="black"/>
<path d="M10.9212 88.7888C10.9212 87.8971 11.6464 87.1742 12.5409 87.1742C13.4354 87.1742 14.1606 87.8971 14.1606 88.7888C14.1606 89.6804 13.4354 90.4037 12.5409 90.4037C11.6464 90.4037 10.9212 89.6804 10.9212 88.7888Z" fill="black"/>
<path d="M20.1044 10.9234C20.1044 10.7872 20.2152 10.6766 20.3519 10.6766C20.4886 10.6766 20.5993 10.7872 20.5993 10.9234C20.5993 11.0597 20.4886 11.1701 20.3519 11.1701C20.2152 11.1701 20.1044 11.0597 20.1044 10.9234Z" fill="black"/>
<path d="M19.9807 18.71C19.9807 18.5056 20.1469 18.3399 20.3519 18.3399C20.5569 18.3399 20.7231 18.5056 20.7231 18.71C20.7231 18.9144 20.5569 19.08 20.3519 19.08C20.1469 19.08 19.9807 18.9144 19.9807 18.71Z" fill="black"/>
<path d="M19.857 26.4965C19.857 26.224 20.0785 26.0031 20.3519 26.0031C20.6253 26.0031 20.8468 26.224 20.8468 26.4965C20.8468 26.7689 20.6253 26.9898 20.3519 26.9898C20.0785 26.9898 19.857 26.7689 19.857 26.4965Z" fill="black"/>
<path d="M19.7333 34.283C19.7333 33.9425 20.0103 33.6664 20.3519 33.6664C20.6935 33.6664 20.9705 33.9425 20.9705 34.283C20.9705 34.6236 20.6935 34.8997 20.3519 34.8997C20.0103 34.8997 19.7333 34.6236 19.7333 34.283Z" fill="black"/>
<path d="M19.6095 42.0696C19.6095 41.6609 19.9419 41.3296 20.3519 41.3296C20.7619 41.3296 21.0943 41.6609 21.0943 42.0696C21.0943 42.4783 20.7619 42.8096 20.3519 42.8096C19.9419 42.8096 19.6095 42.4783 19.6095 42.0696Z" fill="black"/>
<path d="M19.4858 49.8561C19.4858 49.3793 19.8736 48.9928 20.3519 48.9928C20.8302 48.9928 21.218 49.3793 21.218 49.8561C21.218 50.333 20.8302 50.7195 20.3519 50.7195C19.8736 50.7195 19.4858 50.333 19.4858 49.8561Z" fill="black"/>
<path d="M19.3621 57.6427C19.3621 57.0977 19.8052 56.656 20.3519 56.656C20.8986 56.656 21.3417 57.0977 21.3417 57.6427C21.3417 58.1877 20.8986 58.6294 20.3519 58.6294C19.8052 58.6294 19.3621 58.1877 19.3621 57.6427Z" fill="black"/>
<path d="M19.2384 65.4292C19.2384 64.8162 19.7369 64.3192 20.3519 64.3192C20.9669 64.3192 21.4654 64.8162 21.4654 65.4292C21.4654 66.0423 20.9669 66.5393 20.3519 66.5393C19.7369 66.5393 19.2384 66.0423 19.2384 65.4292Z" fill="black"/>
<path d="M19.1146 73.2158C19.1146 72.5346 19.6686 71.9824 20.3519 71.9824C21.0352 71.9824 21.5892 72.5346 21.5892 73.2158C21.5892 73.8969 21.0352 74.4491 20.3519 74.4491C19.6686 74.4491 19.1146 73.8969 19.1146 73.2158Z" fill="black"/>
<path d="M18.9909 81.0023C18.9909 80.253 19.6002 79.6456 20.3519 79.6456C21.1035 79.6456 21.7129 80.253 21.7129 81.0023C21.7129 81.7516 21.1035 82.359 20.3519 82.359C19.6002 82.359 18.9909 81.7516 18.9909 81.0023Z" fill="black"/>
<path d="M18.8672 88.7888C18.8672 87.9714 19.5319 87.3088 20.3519 87.3088C21.1719 87.3088 21.8366 87.9714 21.8366 88.7888C21.8366 89.6064 21.1719 90.2691 20.3519 90.2691C19.5319 90.2691 18.8672 89.6064 18.8672 88.7888Z" fill="black"/>
<path d="M27.9379 10.9234C27.9379 10.7996 28.0386 10.6992 28.1629 10.6992C28.2872 10.6992 28.3879 10.7996 28.3879 10.9234C28.3879 11.0473 28.2872 11.1477 28.1629 11.1477C28.0386 11.1477 27.9379 11.0473 27.9379 10.9234Z" fill="black"/>
<path d="M27.8255 18.71C27.8255 18.5242 27.9765 18.3736 28.1629 18.3736C28.3493 18.3736 28.5003 18.5242 28.5003 18.71C28.5003 18.8957 28.3493 19.0463 28.1629 19.0463C27.9765 19.0463 27.8255 18.8957 27.8255 18.71Z" fill="black"/>
<path d="M27.713 26.4965C27.713 26.2488 27.9144 26.048 28.1629 26.048C28.4114 26.048 28.6128 26.2488 28.6128 26.4965C28.6128 26.7442 28.4114 26.945 28.1629 26.945C27.9144 26.945 27.713 26.7442 27.713 26.4965Z" fill="black"/>
<path d="M27.6005 34.283C27.6005 33.9734 27.8523 33.7224 28.1629 33.7224C28.4735 33.7224 28.7253 33.9734 28.7253 34.283C28.7253 34.5927 28.4735 34.8437 28.1629 34.8437C27.8523 34.8437 27.6005 34.5927 27.6005 34.283Z" fill="black"/>
<path d="M27.488 42.0696C27.488 41.6981 27.7902 41.3968 28.1629 41.3968C28.5356 41.3968 28.8378 41.6981 28.8378 42.0696C28.8378 42.4411 28.5356 42.7423 28.1629 42.7423C27.7902 42.7423 27.488 42.4411 27.488 42.0696Z" fill="black"/>
<path d="M27.3755 49.8561C27.3755 49.4226 27.7281 49.0712 28.1629 49.0712C28.5977 49.0712 28.9502 49.4226 28.9502 49.8561C28.9502 50.2896 28.5977 50.641 28.1629 50.641C27.7281 50.641 27.3755 50.2896 27.3755 49.8561Z" fill="black"/>
<path d="M27.2631 57.6427C27.2631 57.1473 27.666 56.7457 28.1629 56.7457C28.6598 56.7457 29.0627 57.1473 29.0627 57.6427C29.0627 58.1381 28.6598 58.5397 28.1629 58.5397C27.666 58.5397 27.2631 58.1381 27.2631 57.6427Z" fill="black"/>
<path d="M27.1506 65.4292C27.1506 64.8719 27.6038 64.4201 28.1629 64.4201C28.722 64.4201 29.1752 64.8719 29.1752 65.4292C29.1752 65.9865 28.722 66.4384 28.1629 66.4384C27.6038 66.4384 27.1506 65.9865 27.1506 65.4292Z" fill="black"/>
<path d="M27.0381 73.2158C27.0381 72.5965 27.5417 72.0945 28.1629 72.0945C28.7841 72.0945 29.2877 72.5965 29.2877 73.2158C29.2877 73.835 28.7841 74.337 28.1629 74.337C27.5417 74.337 27.0381 73.835 27.0381 73.2158Z" fill="black"/>
<path d="M26.9256 81.0023C26.9256 80.3211 27.4796 79.7689 28.1629 79.7689C28.8462 79.7689 29.4002 80.3211 29.4002 81.0023C29.4002 81.6835 28.8462 82.2357 28.1629 82.2357C27.4796 82.2357 26.9256 81.6835 26.9256 81.0023Z" fill="black"/>
<path d="M26.8132 88.7888C26.8132 88.0457 27.4175 87.4433 28.1629 87.4433C28.9083 87.4433 29.5126 88.0457 29.5126 88.7888C29.5126 89.5317 28.9083 90.1344 28.1629 90.1344C27.4175 90.1344 26.8132 89.5317 26.8132 88.7888Z" fill="black"/>
<path d="M35.7714 10.9234C35.7714 10.8121 35.8621 10.7217 35.9739 10.7217C36.0858 10.7217 36.1764 10.8121 36.1764 10.9234C36.1764 11.0349 36.0858 11.1252 35.9739 11.1252C35.8621 11.1252 35.7714 11.0349 35.7714 10.9234Z" fill="black"/>
<path d="M35.6702 18.71C35.6702 18.5427 35.8062 18.4072 35.9739 18.4072C36.1416 18.4072 36.2776 18.5427 36.2776 18.71C36.2776 18.8771 36.1416 19.0127 35.9739 19.0127C35.8062 19.0127 35.6702 18.8771 35.6702 18.71Z" fill="black"/>
<path d="M35.569 26.4965C35.569 26.2736 35.7503 26.0928 35.9739 26.0928C36.1975 26.0928 36.3788 26.2736 36.3788 26.4965C36.3788 26.7194 36.1975 26.9002 35.9739 26.9002C35.7503 26.9002 35.569 26.7194 35.569 26.4965Z" fill="black"/>
<path d="M35.4677 34.283C35.4677 34.0044 35.6943 33.7785 35.9739 33.7785C36.2535 33.7785 36.4801 34.0044 36.4801 34.283C36.4801 34.5617 36.2535 34.7876 35.9739 34.7876C35.6943 34.7876 35.4677 34.5617 35.4677 34.283Z" fill="black"/>
<path d="M35.3665 42.0696C35.3665 41.7352 35.6385 41.4641 35.9739 41.4641C36.3093 41.4641 36.5813 41.7352 36.5813 42.0696C36.5813 42.404 36.3093 42.6751 35.9739 42.6751C35.6385 42.6751 35.3665 42.404 35.3665 42.0696Z" fill="black"/>
<path d="M35.2653 49.8561C35.2653 49.4659 35.5826 49.1497 35.9739 49.1497C36.3652 49.1497 36.6825 49.4659 36.6825 49.8561C36.6825 50.2463 36.3652 50.5625 35.9739 50.5625C35.5826 50.5625 35.2653 50.2463 35.2653 49.8561Z" fill="black"/>
<path d="M35.1641 57.6427C35.1641 57.1967 35.5266 56.8354 35.9739 56.8354C36.4212 56.8354 36.7838 57.1967 36.7838 57.6427C36.7838 58.0886 36.4212 58.45 35.9739 58.45C35.5266 58.45 35.1641 58.0886 35.1641 57.6427Z" fill="black"/>
<path d="M35.0628 65.4292C35.0628 64.9277 35.4707 64.521 35.9739 64.521C36.477 64.521 36.885 64.9277 36.885 65.4292C36.885 65.9308 36.477 66.3374 35.9739 66.3374C35.4707 66.3374 35.0628 65.9308 35.0628 65.4292Z" fill="black"/>
<path d="M34.9616 73.2158C34.9616 72.6585 35.4148 72.2066 35.9739 72.2066C36.5329 72.2066 36.9862 72.6585 36.9862 73.2158C36.9862 73.773 36.5329 74.2249 35.9739 74.2249C35.4148 74.2249 34.9616 73.773 34.9616 73.2158Z" fill="black"/>
<path d="M34.8604 81.0023C34.8604 80.3893 35.3589 79.8923 35.9739 79.8923C36.5889 79.8923 37.0874 80.3893 37.0874 81.0023C37.0874 81.6153 36.5889 82.1123 35.9739 82.1123C35.3589 82.1123 34.8604 81.6153 34.8604 81.0023Z" fill="black"/>
<path d="M34.7591 88.7888C34.7591 88.12 35.303 87.5779 35.9739 87.5779C36.6448 87.5779 37.1887 88.12 37.1887 88.7888C37.1887 89.4577 36.6448 89.9996 35.9739 89.9996C35.303 89.9996 34.7591 89.4577 34.7591 88.7888Z" fill="black"/>
<path d="M43.6049 10.9234C43.6049 10.8245 43.6856 10.7443 43.7849 10.7443C43.8843 10.7443 43.9649 10.8245 43.9649 10.9234C43.9649 11.0225 43.8843 11.1028 43.7849 11.1028C43.6856 11.1028 43.6049 11.0225 43.6049 10.9234Z" fill="black"/>
<path d="M43.515 18.71C43.515 18.5613 43.6359 18.4409 43.7849 18.4409C43.9339 18.4409 44.0549 18.5613 44.0549 18.71C44.0549 18.8586 43.9339 18.9791 43.7849 18.9791C43.6359 18.9791 43.515 18.8586 43.515 18.71Z" fill="black"/>
<path d="M43.425 26.4965C43.425 26.2983 43.5861 26.1377 43.7849 26.1377C43.9837 26.1377 44.1448 26.2983 44.1448 26.4965C44.1448 26.6947 43.9837 26.8553 43.7849 26.8553C43.5861 26.8553 43.425 26.6947 43.425 26.4965Z" fill="black"/>
<path d="M43.335 34.283C43.335 34.0353 43.5364 33.8345 43.7849 33.8345C44.0335 33.8345 44.2348 34.0353 44.2348 34.283C44.2348 34.5307 44.0335 34.7315 43.7849 34.7315C43.5364 34.7315 43.335 34.5307 43.335 34.283Z" fill="black"/>
<path d="M43.245 42.0696C43.245 41.7724 43.4868 41.5314 43.7849 41.5314C44.0831 41.5314 44.3248 41.7724 44.3248 42.0696C44.3248 42.3668 44.0831 42.6078 43.7849 42.6078C43.4868 42.6078 43.245 42.3668 43.245 42.0696Z" fill="black"/>
<path d="M43.155 49.8561C43.155 49.5094 43.4371 49.2282 43.7849 49.2282C44.1327 49.2282 44.4148 49.5094 44.4148 49.8561C44.4148 50.2029 44.1327 50.484 43.7849 50.484C43.4371 50.484 43.155 50.2029 43.155 49.8561Z" fill="black"/>
<path d="M43.065 57.6427C43.065 57.2463 43.3873 56.9251 43.7849 56.9251C44.1825 56.9251 44.5048 57.2463 44.5048 57.6427C44.5048 58.039 44.1825 58.3603 43.7849 58.3603C43.3873 58.3603 43.065 58.039 43.065 57.6427Z" fill="black"/>
<path d="M42.9751 65.4292C42.9751 64.9833 43.3376 64.6219 43.7849 64.6219C44.2323 64.6219 44.5948 64.9833 44.5948 65.4292C44.5948 65.8751 44.2323 66.2365 43.7849 66.2365C43.3376 66.2365 42.9751 65.8751 42.9751 65.4292Z" fill="black"/>
<path d="M42.8851 73.2158C42.8851 72.7204 43.288 72.3187 43.7849 72.3187C44.2818 72.3187 44.6847 72.7204 44.6847 73.2158C44.6847 73.7111 44.2818 74.1128 43.7849 74.1128C43.288 74.1128 42.8851 73.7111 42.8851 73.2158Z" fill="black"/>
<path d="M42.7951 81.0023C42.7951 80.4573 43.2382 80.0156 43.7849 80.0156C44.3316 80.0156 44.7747 80.4573 44.7747 81.0023C44.7747 81.5473 44.3316 81.989 43.7849 81.989C43.2382 81.989 42.7951 81.5473 42.7951 81.0023Z" fill="black"/>
<path d="M42.7051 88.7888C42.7051 88.1943 43.1885 87.7124 43.7849 87.7124C44.3813 87.7124 44.8647 88.1943 44.8647 88.7888C44.8647 89.383 44.3813 89.8649 43.7849 89.8649C43.1885 89.8649 42.7051 89.383 42.7051 88.7888Z" fill="black"/>
<path d="M51.4384 10.9234C51.4384 10.837 51.509 10.7661 51.5959 10.7661C51.6829 10.7661 51.7534 10.837 51.7534 10.9234C51.7534 11.0101 51.6829 11.0804 51.5959 11.0804C51.509 11.0804 51.4384 11.0101 51.4384 10.9234Z" fill="black"/>
<path d="M51.3597 18.7099C51.3597 18.5799 51.4655 18.4745 51.5959 18.4745C51.7264 18.4745 51.8321 18.5799 51.8321 18.7099C51.8321 18.84 51.7264 18.9454 51.5959 18.9454C51.4655 18.9454 51.3597 18.84 51.3597 18.7099Z" fill="black"/>
<path d="M51.281 26.4965C51.281 26.3231 51.422 26.1825 51.5959 26.1825C51.7699 26.1825 51.9109 26.3231 51.9109 26.4965C51.9109 26.6699 51.7699 26.8104 51.5959 26.8104C51.422 26.8104 51.281 26.6699 51.281 26.4965Z" fill="black"/>
<path d="M51.2022 34.283C51.2022 34.0663 51.3785 33.8906 51.5959 33.8906C51.8133 33.8906 51.9896 34.0663 51.9896 34.283C51.9896 34.4998 51.8133 34.6755 51.5959 34.6755C51.3785 34.6755 51.2022 34.4998 51.2022 34.283Z" fill="black"/>
<path d="M51.1235 42.0696C51.1235 41.8095 51.335 41.5987 51.5959 41.5987C51.8568 41.5987 52.0683 41.8095 52.0683 42.0696C52.0683 42.3297 51.8568 42.5405 51.5959 42.5405C51.335 42.5405 51.1235 42.3297 51.1235 42.0696Z" fill="black"/>
<path d="M51.0448 49.8561C51.0448 49.5528 51.2916 49.3067 51.5959 49.3067C51.9002 49.3067 52.1471 49.5528 52.1471 49.8561C52.1471 50.1595 51.9002 50.4055 51.5959 50.4055C51.2916 50.4055 51.0448 50.1595 51.0448 49.8561Z" fill="black"/>
<path d="M50.966 57.6427C50.966 57.2959 51.2481 57.0148 51.5959 57.0148C51.9437 57.0148 52.2258 57.2959 52.2258 57.6427C52.2258 57.9895 51.9437 58.2706 51.5959 58.2706C51.2481 58.2706 50.966 57.9895 50.966 57.6427Z" fill="black"/>
<path d="M50.8873 65.4292C50.8873 65.039 51.2045 64.7228 51.5959 64.7228C51.9873 64.7228 52.3045 65.039 52.3045 65.4292C52.3045 65.8194 51.9873 66.1356 51.5959 66.1356C51.2045 66.1356 50.8873 65.8194 50.8873 65.4292Z" fill="black"/>
<path d="M50.8086 73.2158C50.8086 72.7823 51.1611 72.4309 51.5959 72.4309C52.0308 72.4309 52.3833 72.7823 52.3833 73.2158C52.3833 73.6492 52.0308 74.0006 51.5959 74.0006C51.1611 74.0006 50.8086 73.6492 50.8086 73.2158Z" fill="black"/>
<path d="M50.7298 81.0023C50.7298 80.5255 51.1176 80.1389 51.5959 80.1389C52.0743 80.1389 52.462 80.5255 52.462 81.0023C52.462 81.4791 52.0743 81.8657 51.5959 81.8657C51.1176 81.8657 50.7298 81.4791 50.7298 81.0023Z" fill="black"/>
<path d="M50.6511 88.7888C50.6511 88.2686 51.0741 87.847 51.5959 87.847C52.1178 87.847 52.5407 88.2686 52.5407 88.7888C52.5407 89.309 52.1178 89.731 51.5959 89.731C51.0741 89.731 50.6511 89.309 50.6511 88.7888Z" fill="black"/>
<path d="M59.2719 10.9238C59.2719 10.85 59.3323 10.7894 59.4066 10.7894C59.4809 10.7894 59.5413 10.85 59.5413 10.9238C59.5413 10.9979 59.4809 11.058 59.4066 11.058C59.3323 11.058 59.2719 10.9979 59.2719 10.9238Z" fill="black"/>
<path d="M59.2045 18.71C59.2045 18.5985 59.2951 18.5081 59.4069 18.5081C59.5188 18.5081 59.6094 18.5985 59.6094 18.71C59.6094 18.8215 59.5188 18.9118 59.4069 18.9118C59.2951 18.9118 59.2045 18.8215 59.2045 18.71Z" fill="black"/>
<path d="M59.137 26.4965C59.137 26.3479 59.2579 26.2274 59.4069 26.2274C59.556 26.2274 59.6769 26.3479 59.6769 26.4965C59.6769 26.6451 59.556 26.7656 59.4069 26.7656C59.2579 26.7656 59.137 26.6451 59.137 26.4965Z" fill="black"/>
<path d="M59.0695 34.283C59.0695 34.0973 59.2206 33.9467 59.4069 33.9467C59.5933 33.9467 59.7444 34.0973 59.7444 34.283C59.7444 34.4688 59.5933 34.6194 59.4069 34.6194C59.2206 34.6194 59.0695 34.4688 59.0695 34.283Z" fill="black"/>
<path d="M59.002 42.0696C59.002 41.8467 59.1833 41.6659 59.4069 41.6659C59.6306 41.6659 59.8118 41.8467 59.8118 42.0696C59.8118 42.2925 59.6306 42.4732 59.4069 42.4732C59.1833 42.4732 59.002 42.2925 59.002 42.0696Z" fill="black"/>
<path d="M58.9345 49.8561C58.9345 49.5961 59.146 49.3852 59.4069 49.3852C59.6678 49.3852 59.8793 49.5961 59.8793 49.8561C59.8793 50.1162 59.6678 50.3271 59.4069 50.3271C59.146 50.3271 58.9345 50.1162 58.9345 49.8561Z" fill="black"/>
<path d="M58.867 57.6427C58.867 57.3455 59.1088 57.1045 59.4069 57.1045C59.7051 57.1045 59.9468 57.3455 59.9468 57.6427C59.9468 57.9399 59.7051 58.1809 59.4069 58.1809C59.1088 58.1809 58.867 57.9399 58.867 57.6427Z" fill="black"/>
<path d="M58.7995 65.4292C58.7995 65.0948 59.0714 64.8237 59.4069 64.8237C59.7424 64.8237 60.0143 65.0948 60.0143 65.4292C60.0143 65.7636 59.7424 66.0347 59.4069 66.0347C59.0714 66.0347 58.7995 65.7636 58.7995 65.4292Z" fill="black"/>
<path d="M58.7321 73.2158C58.7321 72.8443 59.0343 72.543 59.4069 72.543C59.7796 72.543 60.0818 72.8443 60.0818 73.2158C60.0818 73.5873 59.7796 73.8885 59.4069 73.8885C59.0343 73.8885 58.7321 73.5873 58.7321 73.2158Z" fill="black"/>
<path d="M58.6646 81.0023C58.6646 80.5936 58.9969 80.2623 59.4069 80.2623C59.8169 80.2623 60.1493 80.5936 60.1493 81.0023C60.1493 81.411 59.8169 81.7423 59.4069 81.7423C58.9969 81.7423 58.6646 81.411 58.6646 81.0023Z" fill="black"/>
<path d="M58.5971 88.7888C58.5971 88.3429 58.9596 87.9815 59.4069 87.9815C59.8543 87.9815 60.2168 88.3429 60.2168 88.7888C60.2168 89.235 59.8543 89.5963 59.4069 89.5963C58.9596 89.5963 58.5971 89.235 58.5971 88.7888Z" fill="black"/>
<path d="M67.1055 10.9237C67.1055 10.8616 67.1557 10.8118 67.2177 10.8118C67.2796 10.8118 67.3298 10.8616 67.3298 10.9237C67.3298 10.9854 67.2796 11.0355 67.2177 11.0355C67.1557 11.0355 67.1055 10.9854 67.1055 10.9237Z" fill="black"/>
<path d="M67.0492 18.71C67.0492 18.6171 67.1247 18.5418 67.2179 18.5418C67.3111 18.5418 67.3866 18.6171 67.3866 18.71C67.3866 18.8028 67.3111 18.8781 67.2179 18.8781C67.1247 18.8781 67.0492 18.8028 67.0492 18.71Z" fill="black"/>
<path d="M66.993 26.4965C66.993 26.3726 67.0937 26.2723 67.2179 26.2723C67.3422 26.2723 67.4429 26.3726 67.4429 26.4965C67.4429 26.6204 67.3422 26.7208 67.2179 26.7208C67.0937 26.7208 66.993 26.6204 66.993 26.4965Z" fill="black"/>
<path d="M66.9367 34.283C66.9367 34.1282 67.0626 34.0027 67.2179 34.0027C67.3732 34.0027 67.4991 34.1282 67.4991 34.283C67.4991 34.4378 67.3732 34.5634 67.2179 34.5634C67.0626 34.5634 66.9367 34.4378 66.9367 34.283Z" fill="black"/>
<path d="M66.8805 42.0696C66.8805 41.8838 67.0316 41.7332 67.2179 41.7332C67.4043 41.7332 67.5554 41.8838 67.5554 42.0696C67.5554 42.2554 67.4043 42.406 67.2179 42.406C67.0316 42.406 66.8805 42.2554 66.8805 42.0696Z" fill="black"/>
<path d="M66.8243 49.8561C66.8243 49.6394 67.0006 49.4637 67.2179 49.4637C67.4353 49.4637 67.6116 49.6394 67.6116 49.8561C67.6116 50.0728 67.4353 50.2486 67.2179 50.2486C67.0006 50.2486 66.8243 50.0728 66.8243 49.8561Z" fill="black"/>
<path d="M66.768 57.6427C66.768 57.3949 66.9694 57.1942 67.2179 57.1942C67.4665 57.1942 67.6678 57.3949 67.6678 57.6427C67.6678 57.8904 67.4665 58.0912 67.2179 58.0912C66.9694 58.0912 66.768 57.8904 66.768 57.6427Z" fill="black"/>
<path d="M66.7118 65.4292C66.7118 65.1505 66.9384 64.9246 67.2179 64.9246C67.4975 64.9246 67.7241 65.1505 67.7241 65.4292C67.7241 65.7079 67.4975 65.9338 67.2179 65.9338C66.9384 65.9338 66.7118 65.7079 66.7118 65.4292Z" fill="black"/>
<path d="M66.6555 73.2158C66.6555 72.9061 66.9073 72.6551 67.2179 72.6551C67.5286 72.6551 67.7803 72.9061 67.7803 73.2158C67.7803 73.5254 67.5286 73.7764 67.2179 73.7764C66.9073 73.7764 66.6555 73.5254 66.6555 73.2158Z" fill="black"/>
<path d="M66.5993 81.0023C66.5993 80.6617 66.8763 80.3856 67.2179 80.3856C67.5596 80.3856 67.8366 80.6617 67.8366 81.0023C67.8366 81.3429 67.5596 81.619 67.2179 81.619C66.8763 81.619 66.5993 81.3429 66.5993 81.0023Z" fill="black"/>
<path d="M66.543 88.7888C66.543 88.4173 66.8453 88.1161 67.2179 88.1161C67.5906 88.1161 67.8928 88.4173 67.8928 88.7888C67.8928 89.1602 67.5906 89.4616 67.2179 89.4616C66.8453 89.4616 66.543 89.1602 66.543 88.7888Z" fill="black"/>
<path d="M74.9389 10.9237C74.9389 10.8739 74.9791 10.8343 75.0287 10.8343C75.0783 10.8343 75.1185 10.8739 75.1185 10.9237C75.1185 10.9731 75.0783 11.0131 75.0287 11.0131C74.9791 11.0131 74.9389 10.9731 74.9389 10.9237Z" fill="black"/>
<path d="M74.8939 18.7103C74.8939 18.6362 74.9543 18.5761 75.0286 18.5761C75.1029 18.5761 75.1633 18.6362 75.1633 18.7103C75.1633 18.7844 75.1029 18.8445 75.0286 18.8445C74.9543 18.8445 74.8939 18.7844 74.8939 18.7103Z" fill="black"/>
<path d="M74.849 26.4965C74.849 26.3975 74.9296 26.3171 75.0289 26.3171C75.1283 26.3171 75.2089 26.3975 75.2089 26.4965C75.2089 26.5956 75.1283 26.6759 75.0289 26.6759C74.9296 26.6759 74.849 26.5956 74.849 26.4965Z" fill="black"/>
<path d="M74.804 34.283C74.804 34.1592 74.9047 34.0588 75.0289 34.0588C75.1532 34.0588 75.2539 34.1592 75.2539 34.283C75.2539 34.4069 75.1532 34.5073 75.0289 34.5073C74.9047 34.5073 74.804 34.4069 74.804 34.283Z" fill="black"/>
<path d="M74.759 42.0696C74.759 41.921 74.8799 41.8005 75.0289 41.8005C75.178 41.8005 75.2989 41.921 75.2989 42.0696C75.2989 42.2181 75.178 42.3387 75.0289 42.3387C74.8799 42.3387 74.759 42.2181 74.759 42.0696Z" fill="black"/>
<path d="M74.714 49.8561C74.714 49.6827 74.855 49.5422 75.0289 49.5422C75.2029 49.5422 75.3439 49.6827 75.3439 49.8561C75.3439 50.0295 75.2029 50.1701 75.0289 50.1701C74.855 50.1701 74.714 50.0295 74.714 49.8561Z" fill="black"/>
<path d="M74.669 57.6427C74.669 57.4445 74.8301 57.2839 75.0289 57.2839C75.2277 57.2839 75.3889 57.4445 75.3889 57.6427C75.3889 57.8408 75.2277 58.0015 75.0289 58.0015C74.8301 58.0015 74.669 57.8408 74.669 57.6427Z" fill="black"/>
<path d="M74.624 65.4292C74.624 65.2063 74.8053 65.0256 75.0289 65.0256C75.2526 65.0256 75.4339 65.2063 75.4339 65.4292C75.4339 65.6521 75.2526 65.8329 75.0289 65.8329C74.8053 65.8329 74.624 65.6521 74.624 65.4292Z" fill="black"/>
<path d="M74.579 73.2158C74.579 72.968 74.7804 72.7673 75.0289 72.7673C75.2775 72.7673 75.4788 72.968 75.4788 73.2158C75.4788 73.4635 75.2775 73.6643 75.0289 73.6643C74.7804 73.6643 74.579 73.4635 74.579 73.2158Z" fill="black"/>
<path d="M74.534 81.0023C74.534 80.7298 74.7556 80.5089 75.0289 80.5089C75.3022 80.5089 75.5238 80.7298 75.5238 81.0023C75.5238 81.2747 75.3022 81.4956 75.0289 81.4956C74.7556 81.4956 74.534 81.2747 74.534 81.0023Z" fill="black"/>
<path d="M74.489 88.7888C74.489 88.4916 74.7308 88.2506 75.0289 88.2506C75.3271 88.2506 75.5688 88.4916 75.5688 88.7888C75.5688 89.0863 75.3271 89.3269 75.0289 89.3269C74.7308 89.3269 74.489 89.0863 74.489 88.7888Z" fill="black"/>
<path d="M82.7725 10.9236C82.7725 10.8863 82.8025 10.8568 82.8398 10.8568C82.877 10.8568 82.9071 10.8863 82.9071 10.9236C82.9071 10.9606 82.877 10.9907 82.8398 10.9907C82.8025 10.9907 82.7725 10.9606 82.7725 10.9236Z" fill="black"/>
<path d="M82.7387 18.7102C82.7387 18.6546 82.7839 18.6096 82.8397 18.6096C82.8955 18.6096 82.9407 18.6546 82.9407 18.7102C82.9407 18.7658 82.8955 18.8109 82.8397 18.8109C82.7839 18.8109 82.7387 18.7658 82.7387 18.7102Z" fill="black"/>
<path d="M82.7049 26.4968C82.7049 26.4227 82.7653 26.3626 82.8396 26.3626C82.9139 26.3626 82.9743 26.4227 82.9743 26.4968C82.9743 26.5709 82.9139 26.6311 82.8396 26.6311C82.7653 26.6311 82.7049 26.5709 82.7049 26.4968Z" fill="black"/>
<path d="M82.6712 34.283C82.6712 34.1901 82.7467 34.1148 82.8399 34.1148C82.9331 34.1148 83.0087 34.1901 83.0087 34.283C83.0087 34.3759 82.9331 34.4512 82.8399 34.4512C82.7467 34.4512 82.6712 34.3759 82.6712 34.283Z" fill="black"/>
<path d="M82.6375 42.0696C82.6375 41.9581 82.7281 41.8678 82.8399 41.8678C82.9518 41.8678 83.0424 41.9581 83.0424 42.0696C83.0424 42.1811 82.9518 42.2714 82.8399 42.2714C82.7281 42.2714 82.6375 42.1811 82.6375 42.0696Z" fill="black"/>
<path d="M82.6037 49.8561C82.6037 49.7261 82.7095 49.6207 82.8399 49.6207C82.9704 49.6207 83.0761 49.7261 83.0761 49.8561C83.0761 49.9862 82.9704 50.0916 82.8399 50.0916C82.7095 50.0916 82.6037 49.9862 82.6037 49.8561Z" fill="black"/>
<path d="M82.57 57.6427C82.57 57.4941 82.6909 57.3736 82.8399 57.3736C82.989 57.3736 83.1099 57.4941 83.1099 57.6427C83.1099 57.7912 82.989 57.9118 82.8399 57.9118C82.6909 57.9118 82.57 57.7912 82.57 57.6427Z" fill="black"/>
<path d="M82.5362 65.4292C82.5362 65.262 82.6722 65.1265 82.8399 65.1265C83.0076 65.1265 83.1436 65.262 83.1436 65.4292C83.1436 65.5964 83.0076 65.732 82.8399 65.732C82.6722 65.732 82.5362 65.5964 82.5362 65.4292Z" fill="black"/>
<path d="M82.5025 73.2158C82.5025 73.03 82.6536 72.8794 82.8399 72.8794C83.0263 72.8794 83.1774 73.03 83.1774 73.2158C83.1774 73.4015 83.0263 73.5521 82.8399 73.5521C82.6536 73.5521 82.5025 73.4015 82.5025 73.2158Z" fill="black"/>
<path d="M82.4688 81.0023C82.4688 80.798 82.635 80.6323 82.8399 80.6323C83.0449 80.6323 83.2111 80.798 83.2111 81.0023C83.2111 81.2066 83.0449 81.3723 82.8399 81.3723C82.635 81.3723 82.4688 81.2066 82.4688 81.0023Z" fill="black"/>
<path d="M82.435 88.7888C82.435 88.5659 82.6163 88.3852 82.8399 88.3852C83.0636 88.3852 83.2449 88.5659 83.2449 88.7888C83.2449 89.0115 83.0636 89.1922 82.8399 89.1922C82.6163 89.1922 82.435 89.0115 82.435 88.7888Z" fill="black"/>
<path d="M90.606 10.9235C90.606 10.8987 90.6261 10.8785 90.6508 10.8785C90.6758 10.8785 90.696 10.8987 90.696 10.9235C90.696 10.9482 90.6758 10.9683 90.6508 10.9683C90.6261 10.9683 90.606 10.9482 90.606 10.9235Z" fill="black"/>
<path d="M90.5835 18.7101C90.5835 18.6731 90.6135 18.643 90.6508 18.643C90.6882 18.643 90.7178 18.6731 90.7178 18.7101C90.7178 18.7472 90.6882 18.7772 90.6508 18.7772C90.6135 18.7772 90.5835 18.7472 90.5835 18.7101Z" fill="black"/>
<path d="M90.561 26.4967C90.561 26.4473 90.6011 26.4072 90.6507 26.4072C90.7006 26.4072 90.7403 26.4473 90.7403 26.4967C90.7403 26.5461 90.7006 26.5862 90.6507 26.5862C90.6011 26.5862 90.561 26.5461 90.561 26.4967Z" fill="black"/>
<path d="M90.5385 34.2833C90.5385 34.2216 90.5887 34.1715 90.6507 34.1715C90.7122 34.1715 90.7629 34.2216 90.7629 34.2833C90.7629 34.3451 90.7122 34.3952 90.6507 34.3952C90.5887 34.3952 90.5385 34.3451 90.5385 34.2833Z" fill="black"/>
<path d="M90.5159 42.0699C90.5159 41.9958 90.5763 41.9357 90.6506 41.9357C90.7246 41.9357 90.7854 41.9958 90.7854 42.0699C90.7854 42.144 90.7246 42.2041 90.6506 42.2041C90.5763 42.2041 90.5159 42.144 90.5159 42.0699Z" fill="black"/>
<path d="M90.4935 49.8561C90.4935 49.7695 90.564 49.6991 90.6509 49.6991C90.7376 49.6991 90.8087 49.7695 90.8087 49.8561C90.8087 49.9428 90.7376 50.0131 90.6509 50.0131C90.564 50.0131 90.4935 49.9428 90.4935 49.8561Z" fill="black"/>
<path d="M90.471 57.6427C90.471 57.5436 90.5516 57.4633 90.6509 57.4633C90.7501 57.4633 90.8306 57.5436 90.8306 57.6427C90.8306 57.7417 90.7501 57.8221 90.6509 57.8221C90.5516 57.8221 90.471 57.7417 90.471 57.6427Z" fill="black"/>
<path d="M90.4485 65.4292C90.4485 65.3177 90.5391 65.2274 90.651 65.2274C90.7626 65.2274 90.8533 65.3177 90.8533 65.4292C90.8533 65.5407 90.7626 65.631 90.651 65.631C90.5391 65.631 90.4485 65.5407 90.4485 65.4292Z" fill="black"/>
<path d="M90.426 73.2158C90.426 73.0919 90.5267 72.9915 90.6509 72.9915C90.7751 72.9915 90.8759 73.0919 90.8759 73.2158C90.8759 73.3396 90.7751 73.44 90.6509 73.44C90.5267 73.44 90.426 73.3396 90.426 73.2158Z" fill="black"/>
<path d="M90.4035 81.0023C90.4035 80.866 90.5143 80.7556 90.651 80.7556C90.7876 80.7556 90.8986 80.866 90.8986 81.0023C90.8986 81.1386 90.7876 81.249 90.651 81.249C90.5143 81.249 90.4035 81.1386 90.4035 81.0023Z" fill="black"/>
<path d="M90.381 88.7888C90.381 88.6403 90.5019 88.5198 90.6509 88.5198C90.8001 88.5198 90.9212 88.6403 90.9212 88.7888C90.9212 88.9375 90.8001 89.0583 90.6509 89.0583C90.5019 89.0583 90.381 88.9375 90.381 88.7888Z" fill="black"/>
</svg>
