<svg width="93" height="8" viewBox="0 0 93 8" fill="none" xmlns="http://www.w3.org/2000/svg">
<path d="M0.371862 3.70948C0.371862 5.55332 1.87037 7.048 3.71881 7.048C5.56725 7.048 7.06576 5.55332 7.06576 3.70948C7.06576 1.86564 5.56725 0.370964 3.71881 0.370964C1.87037 0.370964 0.371862 1.86564 0.371862 3.70948ZM0 3.70948C0 1.6608 1.66496 0 3.71881 0C5.77267 0 7.43762 1.6608 7.43762 3.70948C7.43762 5.75812 5.77267 7.41898 3.71881 7.41898C1.66496 7.41898 0 5.75812 0 3.70948Z" fill="black"/>
<path d="M10.4267 3.70948C10.4267 5.3929 11.7948 6.75777 13.4826 6.75777C15.1703 6.75777 16.5384 5.3929 16.5384 3.70948C16.5384 2.02603 15.1703 0.661163 13.4826 0.661163C11.7948 0.661163 10.4267 2.02603 10.4267 3.70948ZM10.0871 3.70948C10.0871 1.83896 11.6073 0.322533 13.4826 0.322533C15.3578 0.322533 16.878 1.83896 16.878 3.70948C16.878 5.58 15.3578 7.0964 13.4826 7.0964C11.6073 7.0964 10.0871 5.58 10.0871 3.70948Z" fill="black"/>
<path d="M20.4815 3.70948C20.4815 5.23269 21.7194 6.46734 23.2463 6.46734C24.7733 6.46734 26.0111 5.23269 26.0111 3.70948C26.0111 2.18624 24.7733 0.951591 23.2463 0.951591C21.7194 0.951591 20.4815 2.18624 20.4815 3.70948ZM20.1743 3.70948C20.1743 2.01708 21.5497 0.645103 23.2463 0.645103C24.943 0.645103 26.3184 2.01708 26.3184 3.70948C26.3184 5.40188 24.943 6.77386 23.2463 6.77386C21.5497 6.77386 20.1743 5.40188 20.1743 3.70948Z" fill="black"/>
<path d="M30.5362 3.70948C30.5362 5.0723 31.6438 6.17714 33.0101 6.17714C34.3763 6.17714 35.4839 5.0723 35.4839 3.70948C35.4839 2.34666 34.3763 1.24183 33.0101 1.24183C31.6438 1.24183 30.5362 2.34666 30.5362 3.70948ZM30.2614 3.70948C30.2614 2.19522 31.492 0.967674 33.0101 0.967674C34.5282 0.967674 35.7588 2.19522 35.7588 3.70948C35.7588 5.22374 34.5282 6.45129 33.0101 6.45129C31.492 6.45129 30.2614 5.22374 30.2614 3.70948Z" fill="black"/>
<path d="M40.5911 3.70948C40.5911 4.91198 41.5683 5.8868 42.7738 5.8868C43.9794 5.8868 44.9566 4.91198 44.9566 3.70948C44.9566 2.50698 43.9794 1.53214 42.7738 1.53214C41.5683 1.53214 40.5911 2.50698 40.5911 3.70948ZM40.3485 3.70948C40.3485 2.37334 41.4343 1.29023 42.7738 1.29023C44.1133 1.29023 45.1992 2.37334 45.1992 3.70948C45.1992 5.04558 44.1133 6.12871 42.7738 6.12871C41.4343 6.12871 40.3485 5.04558 40.3485 3.70948Z" fill="black"/>
<path d="M50.6459 3.70948C50.6459 4.75158 51.4929 5.59647 52.5376 5.59647C53.5823 5.59647 54.4293 4.75158 54.4293 3.70948C54.4293 2.66738 53.5823 1.8225 52.5376 1.8225C51.4929 1.8225 50.6459 2.66738 50.6459 3.70948ZM50.4357 3.70948C50.4357 2.55146 51.3767 1.6128 52.5376 1.6128C53.6985 1.6128 54.6395 2.55146 54.6395 3.70948C54.6395 4.86746 53.6985 5.80617 52.5376 5.80617C51.3767 5.80617 50.4357 4.86746 50.4357 3.70948Z" fill="black"/>
<path d="M60.7006 3.70948C60.7006 4.59138 61.4172 5.30624 62.3013 5.30624C63.1855 5.30624 63.9021 4.59138 63.9021 3.70948C63.9021 2.82758 63.1855 2.11274 62.3013 2.11274C61.4172 2.11274 60.7006 2.82758 60.7006 3.70948ZM60.5228 3.70948C60.5228 2.72962 61.319 1.93538 62.3013 1.93538C63.2837 1.93538 64.0799 2.72962 64.0799 3.70948C64.0799 4.68934 63.2837 5.48359 62.3013 5.48359C61.319 5.48359 60.5228 4.68934 60.5228 3.70948Z" fill="black"/>
<path d="M70.7554 3.70948C70.7554 4.43095 71.3418 5.01592 72.0651 5.01592C72.7884 5.01592 73.3748 4.43095 73.3748 3.70948C73.3748 2.98797 72.7884 2.40305 72.0651 2.40305C71.3418 2.40305 70.7554 2.98797 70.7554 3.70948ZM70.6099 3.70948C70.6099 2.90781 71.2615 2.25795 72.0651 2.25795C72.8688 2.25795 73.5203 2.90781 73.5203 3.70948C73.5203 4.51111 72.8688 5.16102 72.0651 5.16102C71.2615 5.16102 70.6099 4.51111 70.6099 3.70948Z" fill="black"/>
<path d="M80.8102 3.70948C80.8102 4.27067 81.2663 4.72556 81.8289 4.72556C82.3914 4.72556 82.8475 4.27067 82.8475 3.70948C82.8475 3.14829 82.3914 2.69336 81.8289 2.69336C81.2663 2.69336 80.8102 3.14829 80.8102 3.70948ZM80.6971 3.70948C80.6971 3.08597 81.2038 2.58048 81.8289 2.58048C82.4539 2.58048 82.9607 3.08597 82.9607 3.70948C82.9607 4.33299 82.4539 4.83845 81.8289 4.83845C81.2038 4.83845 80.6971 4.33299 80.6971 3.70948Z" fill="black"/>
<path d="M90.865 3.70948C90.865 4.11023 91.1909 4.43526 91.5926 4.43526C91.9944 4.43526 92.3202 4.11023 92.3202 3.70948C92.3202 3.30869 91.9944 2.98371 91.5926 2.98371C91.1909 2.98371 90.865 3.30869 90.865 3.70948ZM90.7842 3.70948C90.7842 3.2641 91.1461 2.90306 91.5926 2.90306C92.0391 2.90306 92.4011 3.2641 92.4011 3.70948C92.4011 4.15486 92.0391 4.51591 91.5926 4.51591C91.1461 4.51591 90.7842 4.15486 90.7842 3.70948Z" fill="black"/>
<path d="M0.371862 3.70948C0.371862 5.55332 1.87037 7.048 3.71881 7.048C5.56725 7.048 7.06576 5.55332 7.06576 3.70948C7.06576 1.86564 5.56725 0.370964 3.71881 0.370964C1.87037 0.370964 0.371862 1.86564 0.371862 3.70948Z" fill="black"/>
<path d="M10.4267 3.70948C10.4267 5.3929 11.7948 6.75777 13.4826 6.75777C15.1703 6.75777 16.5384 5.3929 16.5384 3.70948C16.5384 2.02603 15.1703 0.661163 13.4826 0.661163C11.7948 0.661163 10.4267 2.02603 10.4267 3.70948Z" fill="black"/>
<path d="M20.4815 3.70948C20.4815 5.23269 21.7194 6.46734 23.2463 6.46734C24.7733 6.46734 26.0111 5.23269 26.0111 3.70948C26.0111 2.18624 24.7733 0.951591 23.2463 0.951591C21.7194 0.951591 20.4815 2.18624 20.4815 3.70948Z" fill="black"/>
<path d="M30.5362 3.70948C30.5362 5.0723 31.6438 6.17714 33.0101 6.17714C34.3763 6.17714 35.4839 5.0723 35.4839 3.70948C35.4839 2.34666 34.3763 1.24183 33.0101 1.24183C31.6438 1.24183 30.5362 2.34666 30.5362 3.70948Z" fill="black"/>
<path d="M50.6459 3.70948C50.6459 4.75158 51.4929 5.59647 52.5376 5.59647C53.5823 5.59647 54.4293 4.75158 54.4293 3.70948C54.4293 2.66738 53.5823 1.8225 52.5376 1.8225C51.4929 1.8225 50.6459 2.66738 50.6459 3.70948Z" fill="black"/>
<path d="M40.5911 3.70948C40.5911 4.91198 41.5683 5.8868 42.7738 5.8868C43.9794 5.8868 44.9566 4.91198 44.9566 3.70948C44.9566 2.50698 43.9794 1.53214 42.7738 1.53214C41.5683 1.53214 40.5911 2.50698 40.5911 3.70948Z" fill="black"/>
<path d="M60.7006 3.70948C60.7006 4.59138 61.4172 5.30624 62.3013 5.30624C63.1855 5.30624 63.9021 4.59138 63.9021 3.70948C63.9021 2.82758 63.1855 2.11274 62.3013 2.11274C61.4172 2.11274 60.7006 2.82758 60.7006 3.70948Z" fill="black"/>
<path d="M80.8102 3.70948C80.8102 4.27067 81.2663 4.72556 81.8289 4.72556C82.3914 4.72556 82.8475 4.27067 82.8475 3.70948C82.8475 3.14829 82.3914 2.69336 81.8289 2.69336C81.2663 2.69336 80.8102 3.14829 80.8102 3.70948Z" fill="black"/>
<path d="M70.7554 3.70948C70.7554 4.43095 71.3418 5.01592 72.0651 5.01592C72.7884 5.01592 73.3748 4.43095 73.3748 3.70948C73.3748 2.98797 72.7884 2.40305 72.0651 2.40305C71.3418 2.40305 70.7554 2.98797 70.7554 3.70948Z" fill="black"/>
<path d="M90.865 3.70948C90.865 4.11023 91.1909 4.43526 91.5926 4.43526C91.9944 4.43526 92.3202 4.11023 92.3202 3.70948C92.3202 3.30869 91.9944 2.98371 91.5926 2.98371C91.1909 2.98371 90.865 3.30869 90.865 3.70948Z" fill="black"/>
</svg>
