<svg width="49" height="46" viewBox="0 0 49 46" fill="none" xmlns="http://www.w3.org/2000/svg">
<path d="M33.6698 33.411C33.6425 33.4829 33.5905 33.5451 33.5214 33.5884C33.4522 33.6316 33.3695 33.6538 33.2854 33.6515H32.4465L32.9677 31.3018C33.0301 31.4132 33.0862 31.5274 33.1358 31.644L33.6809 33.1816C33.7099 33.2566 33.7059 33.3387 33.6698 33.411ZM15.3302 33.4121C15.2939 33.3397 15.2897 33.2575 15.3183 33.1824L15.8571 31.6615C15.9085 31.5392 15.9669 31.4194 16.0319 31.3026L16.553 33.6515H15.7142C15.6395 33.6521 15.566 33.6342 15.5019 33.5996C15.4378 33.565 15.3854 33.5151 15.3505 33.4554C15.3427 33.4414 15.336 33.4269 15.3302 33.4121ZM20.9781 31.5375C21.0742 31.6409 21.1998 31.7184 21.3413 31.7616L22.536 33.6515H21.5178L20.9781 31.5375ZM22.2352 31.6697L23.3059 31.3945C23.6356 31.6573 24.0601 31.8024 24.4998 31.8024C24.9394 31.8024 25.364 31.6573 25.6937 31.3945L26.7644 31.6697L25.5114 33.6515H23.4882L22.2352 31.6697ZM27.6582 31.7616C27.7416 31.7358 27.8198 31.6983 27.8901 31.6503C27.9382 31.6171 27.9823 31.5793 28.0215 31.5375L27.4818 33.6515H26.4635L27.6582 31.7616ZM26.3057 26.6469C25.795 27.0215 25.1574 27.2259 24.4998 27.2259C23.8422 27.2259 23.2045 27.0215 22.6939 26.6469C22.3964 26.4266 22.1319 26.2174 21.8798 26.0045C21.8839 26.0419 21.8922 26.0792 21.8963 26.1128C21.9406 26.4425 21.964 26.7742 21.9666 27.1063L24.4998 29.0709L27.033 27.1063C27.0356 26.7742 27.059 26.4425 27.1033 26.1128C27.1074 26.0755 27.1157 26.0419 27.1198 26.0045C26.8677 26.2174 26.6032 26.4266 26.3057 26.6469ZM17.611 29.7694C16.958 30.1989 16.8589 30.2736 16.8258 30.3035C16.7762 30.3483 16.7307 30.4006 16.6853 30.4454L17.3961 33.65H18.6028L17.611 29.7694ZM22.8757 30.2587L21.6071 29.5864V31.0542L22.8757 30.7293C22.8577 30.6519 22.848 30.5731 22.8468 30.494C22.8483 30.4149 22.858 30.3361 22.8757 30.2587ZM22.8757 30.2587L21.6071 29.5864V31.0542L22.8757 30.7293C22.8577 30.6519 22.848 30.5731 22.8468 30.494C22.8483 30.4149 22.858 30.3361 22.8757 30.2587ZM19.5491 29.1979C19.147 29.2212 18.7506 29.2954 18.3713 29.4183L19.4499 33.65H20.669L19.5532 29.2726C19.5477 29.248 19.5463 29.2229 19.5491 29.1979ZM22.8757 30.2587L21.6071 29.5864V31.0542L22.8757 30.7293C22.8577 30.6519 22.848 30.5731 22.8468 30.494C22.8483 30.4149 22.858 30.3361 22.8757 30.2587ZM22.8757 30.2587L21.6071 29.5864V31.0542L22.8757 30.7293C22.8577 30.6519 22.848 30.5731 22.8468 30.494C22.8483 30.4149 22.858 30.3361 22.8757 30.2587ZM24.4998 29.9337C24.0535 29.9337 23.6733 30.1914 23.6733 30.494C23.6733 30.8002 24.0535 31.0542 24.4998 31.0542C24.9461 31.0542 25.3263 30.8002 25.3263 30.494C25.3263 30.1914 24.9461 29.9337 24.4998 29.9337ZM29.4505 29.1979C29.4533 29.2229 29.4519 29.248 29.4464 29.2726L28.3306 33.65H29.5497L30.6283 29.4183C30.249 29.2954 29.8526 29.2212 29.4505 29.1979ZM32.1738 30.3035C32.1407 30.2736 32.0416 30.1989 31.3886 29.7694L30.3968 33.65H31.6035L32.3143 30.4454C32.2688 30.4006 32.2234 30.3483 32.1738 30.3035ZM24.4998 29.9337C24.0535 29.9337 23.6733 30.1914 23.6733 30.494C23.6733 30.8002 24.0535 31.0542 24.4998 31.0542C24.9461 31.0542 25.3263 30.8002 25.3263 30.494C25.3263 30.1914 24.9461 29.9337 24.4998 29.9337ZM24.4998 29.9337C24.0535 29.9337 23.6733 30.1914 23.6733 30.494C23.6733 30.8002 24.0535 31.0542 24.4998 31.0542C24.9461 31.0542 25.3263 30.8002 25.3263 30.494C25.3263 30.1914 24.9461 29.9337 24.4998 29.9337ZM26.1239 30.2587C26.1416 30.3361 26.1513 30.4149 26.1528 30.494C26.1516 30.5731 26.1419 30.6519 26.1239 30.7293L27.3925 31.0542V29.5864L26.1239 30.2587ZM24.4998 29.9337C24.0535 29.9337 23.6733 30.1914 23.6733 30.494C23.6733 30.8002 24.0535 31.0542 24.4998 31.0542C24.9461 31.0542 25.3263 30.8002 25.3263 30.494C25.3263 30.1914 24.9461 29.9337 24.4998 29.9337ZM24.4998 29.9337C24.0535 29.9337 23.6733 30.1914 23.6733 30.494C23.6733 30.8002 24.0535 31.0542 24.4998 31.0542C24.9461 31.0542 25.3263 30.8002 25.3263 30.494C25.3263 30.1914 24.9461 29.9337 24.4998 29.9337ZM22.8757 30.2587L21.6071 29.5864V31.0542L22.8757 30.7293C22.8577 30.6519 22.848 30.5731 22.8468 30.494C22.8483 30.4149 22.858 30.3361 22.8757 30.2587ZM27.3719 27.8309L25.3635 29.3847C25.4898 29.4464 25.6066 29.523 25.7106 29.6125L27.1074 28.873C27.1463 28.8504 27.1899 28.8352 27.2355 28.8282C27.3549 28.8074 27.4779 28.8107 27.5958 28.8378C27.7137 28.8649 27.8235 28.9152 27.9174 28.985C28.0603 29.0905 28.1593 29.2366 28.1984 29.3996L28.529 28.8767L27.3719 27.8309ZM29.3803 20.0398C29.3525 20.0507 29.3234 20.0582 29.2935 20.0622C29.2716 20.0729 29.2508 20.0854 29.2315 20.0995C29.0526 20.8073 28.9735 21.5326 28.9959 22.2583C29.0495 22.3225 29.1104 22.3814 29.1778 22.4339C29.2769 22.2695 29.4588 21.7466 29.4588 20.5776C29.4705 20.3954 29.4438 20.2129 29.3803 20.0398ZM29.0951 12.8238C28.7728 12.6483 28.1157 12.9732 27.4173 13.3205C26.5619 13.7463 25.5908 14.2281 24.4998 14.2281C19.7392 14.2281 19.1276 15.7259 19.1276 17.0294C19.1257 17.1994 19.1395 17.3693 19.1689 17.5373C19.2485 18.0781 19.4542 18.5975 19.7722 19.0612L21.6525 16.8912C21.7391 16.7804 21.8496 16.6867 21.9775 16.6158C22.1053 16.5449 22.2478 16.4983 22.3963 16.4787C22.5447 16.4591 22.696 16.4671 22.841 16.502C22.9859 16.537 23.1215 16.5982 23.2394 16.682C23.6002 16.9324 24.0422 17.0684 24.497 17.0691C24.9519 17.0698 25.3944 16.935 25.7561 16.6858C25.8738 16.6012 26.0095 16.5392 26.1547 16.5036C26.2999 16.468 26.4516 16.4595 26.6005 16.4788C26.7495 16.498 26.8925 16.5445 27.0208 16.6154C27.1492 16.6863 27.2602 16.7802 27.3471 16.8912L29.1199 18.9379L29.31 18.9417C29.6772 18.3589 29.8709 17.7 29.872 17.0294C29.872 13.8957 29.4505 13.0105 29.0951 12.8238ZM19.7681 20.1033C19.7436 20.085 19.7173 20.0687 19.6896 20.0547C19.6658 20.0511 19.6424 20.0461 19.6193 20.0398C19.5553 20.2128 19.5286 20.3954 19.5408 20.5776C19.5408 21.7466 19.7227 22.2695 19.8218 22.4339C19.8892 22.3814 19.9501 22.3225 20.0037 22.2583C20.0261 21.5339 19.947 20.8098 19.7681 20.1033ZM26.6983 17.3543C26.6766 17.3222 26.6479 17.2945 26.6138 17.273C26.5798 17.2514 26.5411 17.2365 26.5003 17.2291C26.4596 17.2218 26.4175 17.2221 26.3769 17.2302C26.3363 17.2382 26.298 17.2538 26.2644 17.2759C25.7588 17.6262 25.1396 17.8164 24.5026 17.817C23.8655 17.8177 23.2459 17.6289 22.7394 17.2796C22.7059 17.2568 22.6674 17.2405 22.6266 17.2319C22.5857 17.2232 22.5433 17.2224 22.5021 17.2294C22.4608 17.2364 22.4217 17.2512 22.3871 17.2727C22.3525 17.2942 22.3233 17.322 22.3013 17.3543L20.4582 19.4833C20.4624 19.4982 20.4665 19.5169 20.4706 19.5355C20.4748 19.5533 20.4803 19.5708 20.4872 19.5878V19.599C20.8099 20.6814 20.9135 21.8075 20.793 22.9232C20.7847 22.9979 20.7806 23.08 20.7806 23.1622C20.7806 23.8868 21.6443 24.9176 23.2146 26.0643C23.5776 26.3312 24.0311 26.4772 24.4991 26.4779C24.967 26.4786 25.421 26.3339 25.785 26.068C27.3553 24.9176 28.219 23.8868 28.219 23.1622C28.219 23.08 28.2149 22.9979 28.2066 22.9157C28.0915 21.8361 28.1852 20.7467 28.4835 19.6961C28.4876 19.6849 28.4918 19.6625 28.5 19.6401L28.5207 19.5729C28.529 19.543 28.5331 19.5131 28.5414 19.4795L26.6983 17.3543ZM24.0865 22.8186H24.913C25.0226 22.8186 25.1278 22.8579 25.2053 22.928C25.2828 22.998 25.3263 23.093 25.3263 23.1921C25.3263 23.2911 25.2828 23.3861 25.2053 23.4562C25.1278 23.5262 25.0226 23.5656 24.913 23.5656H24.0865C23.9769 23.5656 23.8718 23.5262 23.7943 23.4562C23.7168 23.3861 23.6733 23.2911 23.6733 23.1921C23.6733 23.093 23.7168 22.998 23.7943 22.928C23.8718 22.8579 23.9769 22.8186 24.0865 22.8186ZM22.8468 20.9511V21.3246C22.8468 21.4237 22.8033 21.5187 22.7258 21.5887C22.6483 21.6587 22.5432 21.6981 22.4336 21.6981C22.324 21.6981 22.2188 21.6587 22.1413 21.5887C22.0638 21.5187 22.0203 21.4237 22.0203 21.3246V20.9511H21.6071C21.4975 20.9511 21.3924 20.9118 21.3149 20.8417C21.2374 20.7717 21.1938 20.6767 21.1938 20.5776C21.1938 20.4785 21.2374 20.3835 21.3149 20.3135C21.3924 20.2435 21.4975 20.2041 21.6071 20.2041H23.2601C23.3697 20.2041 23.4748 20.2435 23.5523 20.3135C23.6298 20.3835 23.6733 20.4785 23.6733 20.5776C23.6733 20.6767 23.6298 20.7717 23.5523 20.8417C23.4748 20.9118 23.3697 20.9511 23.2601 20.9511H22.8468ZM25.3263 25.0596H23.6733C23.5637 25.0596 23.4586 25.0202 23.3811 24.9502C23.3036 24.8801 23.2601 24.7851 23.2601 24.6861C23.2601 24.587 23.3036 24.492 23.3811 24.422C23.4586 24.3519 23.5637 24.3126 23.6733 24.3126H25.3263C25.4359 24.3126 25.541 24.3519 25.6185 24.422C25.696 24.492 25.7395 24.587 25.7395 24.6861C25.7395 24.7851 25.696 24.8801 25.6185 24.9502C25.541 25.0202 25.4359 25.0596 25.3263 25.0596ZM27.3925 20.9511H26.9793V21.3246C26.9793 21.4237 26.9357 21.5187 26.8582 21.5887C26.7807 21.6587 26.6756 21.6981 26.566 21.6981C26.4564 21.6981 26.3513 21.6587 26.2738 21.5887C26.1963 21.5187 26.1528 21.4237 26.1528 21.3246V20.9511H25.7395C25.6299 20.9511 25.5248 20.9118 25.4473 20.8417C25.3698 20.7717 25.3263 20.6767 25.3263 20.5776C25.3263 20.4785 25.3698 20.3835 25.4473 20.3135C25.5248 20.2435 25.6299 20.2041 25.7395 20.2041H27.3925C27.5021 20.2041 27.6072 20.2435 27.6847 20.3135C27.7622 20.3835 27.8058 20.4785 27.8058 20.5776C27.8058 20.6767 27.7622 20.7717 27.6847 20.8417C27.6072 20.9118 27.5021 20.9511 27.3925 20.9511ZM21.6277 27.8309L20.4706 28.8767L20.8012 29.3996C20.8477 29.2098 20.9744 29.0438 21.1542 28.9371C21.334 28.8303 21.5529 28.7913 21.7641 28.8282C21.8097 28.8352 21.8533 28.8504 21.8922 28.873L23.289 29.6125C23.393 29.523 23.5098 29.4464 23.6361 29.3847L21.6277 27.8309Z" fill="black"/>
<path d="M4.16082 17.199L3.7333 18.4057L0.578569 17.4924L0.986844 16.34C1.09219 16.0428 1.24199 15.85 1.43642 15.7613C1.63119 15.6716 1.86027 15.6648 2.12364 15.741C2.24509 15.7761 2.3473 15.8229 2.43025 15.8811C2.51197 15.939 2.57375 16.0055 2.6154 16.0803C2.65565 16.1559 2.67227 16.2389 2.66545 16.3294C2.70307 16.2729 2.7519 16.2209 2.81175 16.1731C2.87055 16.125 2.94037 16.0882 3.0214 16.0626C3.10242 16.0369 3.19167 16.024 3.28915 16.0237C3.3854 16.023 3.49022 16.039 3.60362 16.0719C3.81327 16.1326 3.9706 16.2141 4.07577 16.3164C4.1799 16.4184 4.23712 16.5435 4.2478 16.6916C4.25777 16.8384 4.22872 17.0075 4.16082 17.199ZM2.64235 17.357L3.31067 17.5504L3.49565 17.0286C3.51577 16.9717 3.5198 16.9197 3.50737 16.8727C3.49617 16.826 3.46957 16.7852 3.42757 16.7504C3.38452 16.7152 3.3252 16.6865 3.2496 16.6645C3.18082 16.6446 3.11852 16.6386 3.0627 16.6465C3.00687 16.6543 2.9591 16.6736 2.91902 16.7042C2.8779 16.7346 2.84727 16.7783 2.82715 16.8351L2.64235 17.357ZM1.47387 17.0187L2.08549 17.1958L2.25839 16.7082C2.28184 16.6419 2.27099 16.5817 2.22584 16.5274C2.18174 16.4736 2.11559 16.4339 2.02739 16.4083C1.91172 16.3748 1.82387 16.3734 1.76367 16.4039C1.70469 16.4347 1.66532 16.4782 1.64554 16.5342L1.47387 17.0187Z" fill="black"/>
<path d="M4.98892 15.3652L4.63402 16.0071L2.12154 13.8535L2.55205 13.0745L5.9663 13.5972L5.60895 14.2435L4.99417 14.1372L4.52395 14.9877L4.98892 15.3652ZM2.92672 13.7358L3.98565 14.5641L4.2961 14.0024L2.92672 13.7358Z" fill="black"/>
<path d="M6.68537 12.6362L6.247 13.2108L3.51962 11.5115L4.31027 10.475C4.38955 10.3712 4.47687 10.2844 4.5726 10.2145C4.66657 10.1449 4.7721 10.0986 4.88935 10.0752C5.0066 10.0517 5.13697 10.0579 5.28082 10.0933C5.42362 10.1283 5.58322 10.2006 5.75962 10.3104C5.8795 10.385 5.97435 10.4587 6.04452 10.5316C6.11365 10.6038 6.16405 10.6748 6.19555 10.7445C6.22775 10.8135 6.24577 10.8807 6.24962 10.9465C6.25347 11.0123 6.25155 11.0771 6.24367 11.1409L7.65312 11.3675L7.20757 11.9517L5.95597 11.7163C5.93882 11.7386 5.91922 11.7634 5.89717 11.7906C5.87407 11.8172 5.85255 11.8433 5.83277 11.8692C5.8123 11.8961 5.79147 11.9233 5.7703 11.9512C5.74912 11.9789 5.72935 12.005 5.7108 12.029L6.68537 12.6362ZM4.5285 11.2923L5.20872 11.7161L5.48225 11.3577C5.51305 11.3174 5.53405 11.2783 5.54525 11.2405C5.5582 11.2024 5.55942 11.1635 5.54875 11.124C5.5365 11.0846 5.51287 11.0455 5.47822 11.0066C5.44182 10.9682 5.39107 10.9285 5.32562 10.8878C5.2593 10.8465 5.20015 10.8176 5.14852 10.8011C5.09707 10.7863 5.05175 10.7825 5.01255 10.7898C4.97177 10.7973 4.93397 10.8133 4.89915 10.8378C4.86502 10.8614 4.83265 10.8935 4.80185 10.9338L4.5285 11.2923Z" fill="black"/>
<path d="M8.97542 10.0649L8.02692 10.9979L5.58742 8.97242L6.49322 8.0813C6.72685 7.85149 6.95242 7.73318 7.16995 7.72654C7.38835 7.71894 7.5994 7.79977 7.8031 7.96885C7.89707 8.04682 7.96812 8.12796 8.01642 8.21227C8.06385 8.29594 8.08905 8.37961 8.09202 8.46328C8.09342 8.5471 8.06997 8.62872 8.02167 8.70843C8.08205 8.67142 8.15047 8.64264 8.22712 8.62208C8.30272 8.60072 8.38322 8.59376 8.4688 8.6012C8.5542 8.60863 8.64135 8.63078 8.7299 8.66731C8.81757 8.70322 8.90525 8.75747 8.99292 8.83038C9.15497 8.96498 9.25997 9.09863 9.30792 9.23149C9.355 9.36356 9.34905 9.49879 9.2899 9.63735C9.23075 9.77432 9.12592 9.91683 8.97542 10.0649ZM7.52362 9.63229L8.04057 10.0614L8.4506 9.65791C8.4954 9.61394 8.52305 9.56823 8.53355 9.52094C8.54492 9.47428 8.53985 9.42715 8.51797 9.37954C8.49522 9.33114 8.45462 9.28274 8.39635 9.23418C8.34315 9.19005 8.28942 9.16095 8.23517 9.14687C8.18092 9.1328 8.12842 9.13216 8.07802 9.14482C8.02657 9.15684 7.97862 9.18483 7.93382 9.2288L7.52362 9.63229ZM6.6201 8.8821L7.09312 9.27483L7.47637 8.89776C7.52852 8.84652 7.54655 8.78768 7.5308 8.7214C7.51575 8.65577 7.47427 8.59471 7.40585 8.53809C7.31642 8.46375 7.23732 8.42911 7.16872 8.43402C7.10082 8.43971 7.045 8.46423 7.0009 8.50741L6.6201 8.8821Z" fill="black"/>
<path d="M10.808 8.55929C10.7532 8.60009 10.6839 8.6428 10.5996 8.68724C10.5152 8.73327 10.4232 8.76474 10.3231 8.78167C10.223 8.79859 10.1173 8.78863 10.0058 8.75193C9.89522 8.71461 9.7841 8.63473 9.67227 8.51247L8.53827 7.27149C8.4394 7.1633 8.37605 7.05907 8.34822 6.95864C8.31952 6.85725 8.3162 6.76472 8.33772 6.68089C8.35942 6.59707 8.3988 6.51893 8.45602 6.44665C8.51237 6.37358 8.57502 6.31126 8.64345 6.26017C8.82702 6.12304 8.98925 6.00695 9.13012 5.91173C9.27012 5.81572 9.3942 5.73221 9.50252 5.66103C9.6126 5.59017 9.71147 5.52691 9.79932 5.47123L10.2142 5.92501L9.278 6.62395C9.21587 6.6703 9.17947 6.71933 9.16897 6.77105C9.15847 6.82261 9.17877 6.87655 9.23005 6.9327L9.46332 7.18782L10.4549 6.49837L10.8421 6.9221L9.90345 7.66944L10.1252 7.91207C10.1673 7.95809 10.2078 7.98783 10.2464 8.00127C10.2869 8.01472 10.3262 8.01772 10.3647 8.01029C10.4041 8.00206 10.44 7.98593 10.4724 7.96157L11.4253 7.2503L11.8377 7.70155C11.7458 7.78711 11.6415 7.88043 11.525 7.98166C11.4093 8.0821 11.2891 8.18174 11.1641 8.28075C11.0394 8.37818 10.9207 8.47103 10.808 8.55929Z" fill="black"/>
<path d="M12.8953 7.16457L12.2143 7.53341L11.3764 4.49677L12.2028 4.049L14.7709 6.1485L14.0854 6.51988L13.6301 6.13142L12.7278 6.62016L12.8953 7.16457ZM12.1254 4.78874L12.5258 6.00157L13.1215 5.67875L12.1254 4.78874Z" fill="black"/>
<path d="M15.9488 5.68729L15.2375 5.95886L13.9482 3.2009L15.2313 2.71106C15.3598 2.66203 15.4853 2.63119 15.6072 2.61869C15.7278 2.60572 15.8445 2.61774 15.9572 2.65507C16.0699 2.69224 16.1763 2.76073 16.2766 2.86053C16.3764 2.95938 16.4679 3.09794 16.5512 3.27619C16.6079 3.39735 16.6441 3.50569 16.66 3.60107C16.6754 3.69549 16.6756 3.7798 16.6607 3.85398C16.6469 3.92768 16.6221 3.99332 16.5862 4.05058C16.5503 4.10799 16.5101 4.16161 16.4656 4.21175L17.5193 5.08752L16.7964 5.36352L15.8808 4.55719C15.8531 4.56778 15.8218 4.57917 15.787 4.59119C15.7516 4.60226 15.718 4.61397 15.6858 4.62631C15.6526 4.63896 15.6188 4.65193 15.5845 4.66506C15.5502 4.67818 15.518 4.69052 15.4881 4.70191L15.9488 5.68729ZM14.9291 3.50617L15.2508 4.19419L15.6946 4.02464C15.7444 4.00566 15.7854 3.98288 15.8174 3.95647C15.851 3.93069 15.8752 3.89842 15.8897 3.85983C15.9026 3.8206 15.9061 3.77632 15.9 3.72665C15.8923 3.67651 15.8729 3.61847 15.8419 3.55235C15.8106 3.48529 15.7779 3.43214 15.7441 3.39324C15.7096 3.35575 15.6736 3.33044 15.6363 3.31763C15.5974 3.30419 15.556 3.29928 15.512 3.30308C15.4692 3.3064 15.4228 3.31763 15.3729 3.33661L14.9291 3.50617Z" fill="black"/>
<path d="M18.832 4.73465L18.0935 4.93853L17.1259 2.07507L17.8646 1.8712L18.832 4.73465Z" fill="black"/>
<path d="M20.1292 4.49566L19.3475 4.62014L19.7661 1.51342L20.715 1.36237L22.283 4.15291L21.4958 4.27818L21.2242 3.76841L20.1882 3.93338L20.1292 4.49566ZM20.3501 2.02825L20.2442 3.29027L20.9285 3.18129L20.3501 2.02825Z" fill="black"/>
<path d="M25.9529 4.13773L24.9902 4.10024L24.1252 1.06976L24.9237 1.10092L25.5112 3.36477L26.3136 1.15502L27.103 1.1857L25.9529 4.13773Z" fill="black"/>
<path d="M27.8705 4.33037L27.0906 4.19657L28.6992 1.42516L29.6457 1.5876L30.0188 4.69906L29.2336 4.5643L29.1794 4.0006L28.146 3.82329L27.8705 4.33037ZM29.0437 2.09342L28.4503 3.23981L29.1328 3.35686L29.0437 2.09342Z" fill="black"/>
<path d="M31.24 5.06775L30.5134 4.84125L31.5933 2.01086L32.1715 2.19101L32.7172 4.27739L33.3706 2.56476L34.1007 2.7922L33.0208 5.6226L32.4375 5.44087L31.8917 3.35955L31.24 5.06775Z" fill="black"/>
<path d="M34.449 6.31537C34.2671 6.22854 34.1376 6.1243 34.0603 6.00252C33.9842 5.88136 33.9488 5.74518 33.9542 5.59413C33.9597 5.44292 33.9969 5.28017 34.0664 5.10539C34.1354 4.92935 34.226 4.74509 34.3382 4.55292C34.4595 4.34524 34.5837 4.16541 34.7108 4.01325C34.8389 3.86173 34.9764 3.74611 35.1236 3.66639C35.2715 3.58572 35.437 3.54919 35.6202 3.55678C35.8031 3.56295 36.0103 3.62131 36.2422 3.73203C36.3869 3.80115 36.5119 3.86758 36.6176 3.93132C36.7231 3.99522 36.8197 4.06038 36.9072 4.12681C36.9938 4.19277 37.0817 4.26236 37.1709 4.33575L36.892 4.81294C36.8374 4.7783 36.7677 4.73576 36.6828 4.68546C36.5974 4.63611 36.5005 4.58186 36.3923 4.52286C36.284 4.46371 36.1682 4.40487 36.0448 4.34588C35.8862 4.27027 35.7534 4.2369 35.6461 4.24591C35.5373 4.2554 35.436 4.31219 35.3425 4.41626C35.248 4.51986 35.1409 4.67407 35.021 4.8789C34.9283 5.03754 34.8602 5.1704 34.8168 5.27748C34.7722 5.38408 34.7507 5.47329 34.7521 5.54526C34.7529 5.61817 34.7759 5.67891 34.821 5.72762C34.8649 5.7757 34.9264 5.81857 35.0051 5.85605C35.1071 5.90477 35.2048 5.94399 35.2975 5.97357C35.3899 6.00173 35.4645 6.02197 35.5212 6.03415L35.7672 5.61311L35.3063 5.3931L35.5919 4.9042C35.6533 4.92492 35.7242 4.95134 35.8047 4.9836C35.8852 5.01587 35.9695 5.05067 36.0579 5.08799C36.1452 5.12485 36.2245 5.16012 36.2957 5.19412C36.3873 5.23778 36.4674 5.27732 36.5365 5.31275C36.6062 5.34723 36.6683 5.3806 36.7229 5.41287L35.8246 6.94994L35.311 6.70478L35.3245 6.48255C35.2307 6.48935 35.1026 6.48287 34.94 6.4631C34.7785 6.4438 34.6149 6.39461 34.449 6.31537Z" fill="black"/>
<path d="M37.4264 8.01804C37.2784 7.91934 37.1489 7.81685 37.0383 7.71072C36.9273 7.60301 36.847 7.48723 36.7971 7.36354C36.7472 7.2397 36.738 7.10731 36.7693 6.96607C36.8008 6.82498 36.8836 6.67219 37.018 6.5077L38.3427 4.88428L38.9641 5.29851L37.6415 6.91941C37.5829 6.99122 37.5533 7.06049 37.5524 7.1274C37.5508 7.19525 37.5748 7.26121 37.6242 7.32527C37.6728 7.39011 37.7437 7.45354 37.8366 7.51538C37.9276 7.57612 38.0146 7.61787 38.0975 7.64081C38.1808 7.66517 38.2575 7.66643 38.3278 7.64429C38.3984 7.62373 38.4629 7.5777 38.5214 7.50589L39.844 5.88516L40.4655 6.2994L39.1407 7.92282C39.0065 8.08731 38.87 8.20436 38.731 8.27379C38.5912 8.3426 38.4479 8.37344 38.3014 8.36632C38.1558 8.35984 38.0107 8.3252 37.866 8.26241C37.722 8.19882 37.5755 8.11737 37.4264 8.01804Z" fill="black"/>
<path d="M39.2849 9.41576L38.7254 8.90662L41.7867 7.44373L42.4655 8.06153L40.826 10.8181L40.2626 10.3056L40.5706 9.81292L39.8295 9.13833L39.2849 9.41576ZM41.6525 8.17083L40.4457 8.81283L40.9352 9.25838L41.6525 8.17083Z" fill="black"/>
<path d="M41.603 11.7411L41.141 11.1818L43.795 9.39029L44.6285 10.3989C44.712 10.5 44.775 10.6026 44.8175 10.7069C44.8604 10.8095 44.8753 10.9149 44.8623 11.0227C44.8494 11.1306 44.8013 11.2404 44.718 11.3522C44.6357 11.4634 44.5088 11.5768 44.3373 11.6926C44.2208 11.7713 44.113 11.8291 44.0143 11.8659C43.9165 11.902 43.826 11.9224 43.7429 11.927C43.6603 11.9325 43.584 11.9263 43.5136 11.9086C43.4434 11.8909 43.3761 11.8685 43.3117 11.8414L42.6232 12.9758L42.1535 12.4075L42.8007 11.4109C42.7826 11.389 42.763 11.3644 42.7417 11.3369C42.7214 11.3085 42.7007 11.2818 42.6797 11.2565C42.6582 11.2304 42.6362 11.2038 42.6139 11.1768C42.5915 11.1497 42.5707 11.1246 42.5513 11.101L41.603 11.7411ZM43.7019 10.3243L43.0399 10.7711L43.3281 11.12C43.3605 11.1592 43.3948 11.1898 43.4308 11.2116C43.4667 11.235 43.507 11.2484 43.5519 11.2519C43.5971 11.254 43.6457 11.2464 43.6974 11.229C43.7493 11.2102 43.8071 11.1793 43.8708 11.1363C43.9354 11.0926 43.9845 11.0514 44.0183 11.0123C44.0503 10.9731 44.0689 10.9354 44.0738 10.8995C44.0789 10.8622 44.0741 10.8246 44.0596 10.7871C44.0458 10.7504 44.0227 10.7123 43.9903 10.673L43.7019 10.3243Z" fill="black"/>
<path d="M43.5721 14.5483L42.8878 13.4107L45.7981 11.9806L46.4825 13.1181C46.5945 13.3045 46.6494 13.4754 46.6472 13.6311C46.6461 13.7862 46.6015 13.9319 46.5136 14.0679C46.4261 14.2025 46.3015 14.3275 46.1397 14.4429C45.9794 14.5589 45.7946 14.6682 45.5853 14.7711C45.2514 14.9352 44.957 15.0353 44.7022 15.0713C44.4479 15.1083 44.228 15.0829 44.0421 14.9948C43.8552 14.9072 43.6986 14.7583 43.5721 14.5483ZM45.5583 12.8929L43.8638 13.7256L44.1431 14.1897C44.2012 14.2862 44.2771 14.3477 44.3713 14.3746C44.4649 14.4004 44.582 14.3949 44.7227 14.3578C44.8634 14.3208 45.0288 14.2557 45.219 14.1622C45.3998 14.0735 45.5406 13.9923 45.6418 13.9192C45.7445 13.8465 45.8149 13.7791 45.8528 13.7171C45.8919 13.6546 45.9085 13.5945 45.9025 13.5368C45.8961 13.4781 45.8744 13.4182 45.8376 13.3571L45.5583 12.8929Z" fill="black"/>
<path d="M44.5295 16.4679L44.2638 15.7918L47.7229 15.6488L48.0454 16.4695L45.2612 18.3304L44.9938 17.6496L45.5048 17.3228L45.1528 16.427L44.5295 16.4679ZM47.2583 16.2547L45.8639 16.3702L46.0963 16.9617L47.2583 16.2547Z" fill="black"/>
<path d="M1.87409 30.7515L1.44639 29.5449L4.60112 28.6316L5.00957 29.7839C5.11492 30.0811 5.11702 30.3167 5.0157 30.491C4.9149 30.6663 4.73272 30.7922 4.46935 30.8684C4.3479 30.9035 4.23467 30.9192 4.12985 30.9152C4.02607 30.911 3.93315 30.8894 3.85107 30.8504C3.76987 30.81 3.70285 30.7512 3.65017 30.674C3.65577 30.7398 3.64965 30.8078 3.63162 30.8781C3.61465 30.948 3.58157 31.0147 3.53205 31.078C3.48252 31.1414 3.4183 31.1988 3.3392 31.2504C3.26132 31.3015 3.1656 31.3434 3.0522 31.3761C2.84255 31.4369 2.66212 31.4532 2.51057 31.4252C2.36025 31.3967 2.2332 31.325 2.12942 31.2101C2.02704 31.0959 1.94199 30.9429 1.87409 30.7515ZM3.00845 29.8255L2.34012 30.0191L2.5251 30.5408C2.54522 30.5978 2.5755 30.6421 2.61575 30.6739C2.65495 30.706 2.70272 30.7251 2.75925 30.7316C2.817 30.7378 2.88367 30.7299 2.95927 30.7079C3.02805 30.6879 3.08265 30.6603 3.12307 30.6245C3.1635 30.5888 3.1901 30.5481 3.20287 30.5021C3.21687 30.4558 3.21372 30.4042 3.19342 30.3473L3.00845 29.8255ZM4.17692 29.4873L3.5653 29.6643L3.73802 30.1519C3.76147 30.2182 3.80907 30.2615 3.88065 30.2819C3.95117 30.3027 4.03045 30.3003 4.11882 30.2747C4.2345 30.2411 4.30695 30.1962 4.33617 30.1397C4.36435 30.0836 4.36837 30.0276 4.3486 29.9718L4.17692 29.4873Z" fill="black"/>
<path d="M2.8408 32.8933L2.4859 32.2514L5.90015 31.7287L6.33065 32.5077L3.81817 34.6613L3.461 34.015L3.92422 33.6344L3.454 32.784L2.8408 32.8933ZM5.52057 32.3813L4.15207 32.6492L4.46252 33.2109L5.52057 32.3813Z" fill="black"/>
<path d="M4.7084 35.884L4.27002 35.3094L6.99722 33.6101L7.78787 34.6464C7.86715 34.7501 7.92577 34.8549 7.96392 34.9607C8.00242 35.0647 8.01292 35.1704 7.9956 35.2776C7.9781 35.3849 7.92542 35.4931 7.8374 35.602C7.7506 35.7104 7.619 35.8194 7.44277 35.9291C7.3229 36.0038 7.213 36.0579 7.11272 36.0912C7.0135 36.124 6.92232 36.1412 6.83885 36.1431C6.75607 36.1458 6.68012 36.1371 6.61065 36.1169C6.54117 36.0968 6.47485 36.0721 6.41167 36.0428L5.67615 37.1529L5.2306 36.5687L5.91905 35.5951C5.9019 35.5728 5.88335 35.5473 5.86322 35.519C5.84397 35.49 5.82455 35.4625 5.8046 35.4366C5.78412 35.4097 5.7633 35.3825 5.74212 35.3548C5.72095 35.3271 5.70117 35.301 5.6828 35.2768L4.7084 35.884ZM6.86527 34.5401L6.18487 34.964L6.4584 35.3224C6.4892 35.3627 6.5221 35.3944 6.5571 35.4175C6.59192 35.442 6.63165 35.4568 6.67645 35.4619C6.7216 35.4655 6.77025 35.4595 6.82275 35.444C6.87542 35.4269 6.93457 35.3982 7.00002 35.3573C7.06635 35.3161 7.11727 35.2764 7.15245 35.2384C7.18622 35.2003 7.20617 35.1633 7.21265 35.1277C7.2193 35.0905 7.21615 35.0529 7.2032 35.0148C7.19095 34.9776 7.16942 34.9388 7.13862 34.8985L6.86527 34.5401Z" fill="black"/>
<path d="M7.20705 38.6918L6.25855 37.7588L8.69805 35.7333L9.60385 36.6243C9.83747 36.8541 9.94877 37.0671 9.93775 37.2637C9.9276 37.4611 9.82067 37.6443 9.61697 37.8135C9.523 37.8915 9.42762 37.9486 9.33067 37.985C9.2346 38.0206 9.1401 38.0362 9.04752 38.0318C8.95495 38.0259 8.86692 37.9979 8.78327 37.9478C8.8188 38.0054 8.84487 38.0694 8.86115 38.1401C8.8783 38.21 8.87917 38.2831 8.8636 38.3595C8.84802 38.4359 8.81635 38.5123 8.76857 38.5889C8.72167 38.6648 8.6543 38.7391 8.56645 38.812C8.4044 38.9466 8.24812 39.0298 8.09762 39.0618C7.948 39.0929 7.79942 39.0762 7.65172 39.0113C7.50577 38.9465 7.35755 38.84 7.20705 38.6918ZM7.80677 37.4211L7.29 37.8502L7.70002 38.2537C7.74482 38.2977 7.79277 38.3265 7.84422 38.3401C7.89462 38.3543 7.94695 38.3537 8.00137 38.338C8.05667 38.3217 8.11355 38.2891 8.17182 38.2406C8.22502 38.1964 8.2616 38.1506 8.28172 38.1028C8.30185 38.055 8.3071 38.0079 8.2973 37.9616C8.28837 37.9143 8.2616 37.8686 8.21697 37.8246L7.80677 37.4211ZM8.7103 36.6709L8.23727 37.0637L8.62052 37.4407C8.67267 37.492 8.73585 37.5132 8.8104 37.5045C8.8839 37.4966 8.95495 37.4643 9.02302 37.4077C9.11245 37.3333 9.15742 37.2652 9.15777 37.2027C9.15725 37.1412 9.13502 37.0886 9.0911 37.0455L8.7103 36.6709Z" fill="black"/>
<path d="M9.24423 40.4402C9.18945 40.3994 9.12995 40.3458 9.0659 40.2795C8.99992 40.2134 8.94847 40.1375 8.9112 40.0519C8.87392 39.9663 8.86483 39.8706 8.88338 39.7647C8.90298 39.6595 8.96877 39.5458 9.0806 39.4233L10.2148 38.1824C10.3137 38.0742 10.415 37.9983 10.5189 37.9548C10.6236 37.9102 10.7235 37.8896 10.8187 37.8929C10.9139 37.8962 11.0061 37.9165 11.0956 37.9537C11.1857 37.9899 11.265 38.0337 11.3336 38.0849C11.5171 38.2221 11.6739 38.344 11.8041 38.4509C11.9349 38.5571 12.0491 38.6515 12.1466 38.7342C12.2444 38.8185 12.3318 38.8943 12.4091 38.9618L11.9942 39.4158L11.0581 38.7168C10.996 38.6705 10.936 38.6474 10.8777 38.6477C10.8196 38.648 10.765 38.6763 10.7137 38.7325L10.4804 38.9878L11.4169 39.7376L11.0296 40.1614L10.0403 39.4692L9.81857 39.712C9.7764 39.758 9.75172 39.7996 9.74455 39.8365C9.73755 39.8749 9.74175 39.9105 9.75698 39.9431C9.77325 39.9765 9.79775 40.0052 9.8303 40.0294L10.7832 40.7409L10.3705 41.1923C10.2603 41.1268 10.1392 41.052 10.0072 40.9675C9.87615 40.8839 9.74525 40.7959 9.61417 40.7037C9.48485 40.6113 9.36148 40.5236 9.24423 40.4402Z" fill="black"/>
<path d="M11.6608 41.9855L10.9799 41.6166L13.548 39.5171L14.3744 39.9649L13.5365 43.0016L12.8508 42.6302L13.0151 42.0842L12.113 41.5955L11.6608 41.9855ZM13.6161 40.2518L12.6214 41.1428L13.2173 41.4654L13.6161 40.2518Z" fill="black"/>
<path d="M15.0142 43.6004L14.3028 43.3288L15.592 40.5708L16.8751 41.0607C17.0036 41.1097 17.1154 41.1695 17.2104 41.24C17.3047 41.3092 17.3765 41.3932 17.4257 41.4922C17.4747 41.5912 17.4946 41.7079 17.4852 41.8425C17.4762 41.976 17.4302 42.132 17.3469 42.31C17.2902 42.4312 17.2297 42.5302 17.1649 42.6071C17.1007 42.6828 17.034 42.7418 16.9649 42.7838C16.8968 42.8262 16.8273 42.8557 16.7568 42.8726C16.6863 42.8894 16.6158 42.9008 16.5451 42.9068L16.5848 44.2001L15.8619 43.924L15.8633 42.7686C15.8356 42.758 15.8048 42.7456 15.7709 42.7316C15.7374 42.7164 15.7047 42.7028 15.6727 42.6904C15.6394 42.6778 15.6057 42.6648 15.5712 42.6518C15.5369 42.6387 15.5047 42.6264 15.4749 42.615L15.0142 43.6004ZM16.0339 41.4193L15.7122 42.1073L16.156 42.2767C16.2059 42.2957 16.2525 42.3064 16.2957 42.3088C16.3396 42.3126 16.382 42.3058 16.4227 42.2882C16.463 42.2694 16.5004 42.2406 16.5356 42.2022C16.5699 42.1622 16.6026 42.1092 16.6334 42.0431C16.6648 41.976 16.6842 41.9178 16.6914 41.8686C16.6971 41.82 16.6921 41.7792 16.6763 41.746C16.6599 41.7114 16.6348 41.6812 16.6011 41.6554C16.5685 41.6299 16.5274 41.6078 16.4775 41.5887L16.0339 41.4193Z" fill="black"/>
<path d="M18.1307 44.6294L17.3921 44.4255L18.3596 41.5621L19.0981 41.766L18.1307 44.6294Z" fill="black"/>
<path d="M19.7127 44.9301L18.9308 44.8056L20.4988 42.0152L21.4477 42.1663L21.8663 45.273L21.0791 45.1476L21.0166 44.5847L19.9808 44.4197L19.7127 44.9301ZM20.853 42.6792L20.2766 43.8326L20.9606 43.9415L20.853 42.6792Z" fill="black"/>
<path d="M26.0561 45.319L25.0936 45.3565L23.9434 42.4045L24.7419 42.3735L25.5425 44.5832L26.1317 42.3194L26.9213 42.2885L26.0561 45.319Z" fill="black"/>
<path d="M28.3184 45.0902L27.5384 45.2241L27.9115 42.1125L28.8581 41.9502L30.4667 44.7216L29.6814 44.8564L29.4025 44.3498L28.3689 44.5271L28.3184 45.0902ZM28.503 42.6202L28.4157 43.8835L29.0982 43.7663L28.503 42.6202Z" fill="black"/>
<path d="M32.0228 44.2724L31.2962 44.4989L30.2164 41.6685L30.7946 41.4882L32.6472 42.8274L31.9937 41.1146L32.7238 40.887L33.8036 43.7176L33.2203 43.8993L31.3711 42.5644L32.0228 44.2724Z" fill="black"/>
<path d="M35.5907 42.9267C35.4088 43.0136 35.2405 43.0515 35.0858 43.0405C34.9321 43.0289 34.7878 42.9786 34.6527 42.8896C34.5176 42.8004 34.3898 42.6806 34.2694 42.5304C34.1473 42.3796 34.03 42.2082 33.9177 42.0159C33.7964 41.8082 33.7019 41.6141 33.6345 41.4336C33.5682 41.2525 33.54 41.0847 33.5503 40.9297C33.56 40.7739 33.6198 40.6297 33.7301 40.4973C33.8387 40.3643 34.009 40.2425 34.2409 40.1316C34.3856 40.0625 34.5169 40.0067 34.6346 39.964C34.7524 39.9213 34.8665 39.8858 34.9766 39.8578C35.0856 39.8303 35.1988 39.804 35.3161 39.7789L35.595 40.2561C35.5326 40.2773 35.4545 40.3054 35.3605 40.3404C35.2673 40.3763 35.1631 40.4181 35.0482 40.4655C34.9332 40.5131 34.8138 40.5663 34.6905 40.6253C34.5319 40.7009 34.4266 40.7814 34.3744 40.8665C34.3217 40.9531 34.3165 41.0607 34.359 41.1893C34.4003 41.3183 34.481 41.4852 34.6005 41.6899C34.6933 41.8485 34.7762 41.9743 34.8495 42.0671C34.9218 42.1604 34.9913 42.2269 35.0578 42.2664C35.125 42.3069 35.1934 42.324 35.2632 42.3176C35.332 42.3119 35.4057 42.2903 35.4844 42.2526C35.5865 42.2039 35.6773 42.1531 35.7567 42.1006C35.8344 42.0475 35.895 42.0032 35.9382 41.9678L35.6922 41.5467L35.2312 41.7669L34.9454 41.278C34.999 41.2438 35.063 41.2059 35.1379 41.164C35.2128 41.1221 35.2921 41.0787 35.3761 41.0338C35.4589 40.9894 35.5361 40.9501 35.6073 40.9161C35.6988 40.8725 35.7802 40.8348 35.8514 40.8032C35.9221 40.7706 35.9877 40.7431 36.0479 40.7205L36.9462 42.2575L36.4324 42.5029L36.2371 42.3675C36.1906 42.4413 36.1123 42.5334 36.0026 42.6435C35.8939 42.7531 35.7566 42.8475 35.5907 42.9267Z" fill="black"/>
<path d="M38.8775 41.0485C38.7295 41.1472 38.5828 41.2287 38.4379 41.2929C38.2913 41.3568 38.1451 41.3921 37.9995 41.3985C37.8539 41.405 37.7111 41.3739 37.5713 41.3051C37.4315 41.2363 37.2943 41.1195 37.1602 40.9552L35.8355 39.3318L36.4569 38.9174L37.7796 40.5383C37.8382 40.6101 37.9026 40.6561 37.9731 40.6767C38.0443 40.698 38.1211 40.6969 38.2034 40.673C38.2863 40.6501 38.3744 40.6077 38.4673 40.5459C38.5583 40.4851 38.6281 40.4225 38.6768 40.3575C38.7272 40.2928 38.7512 40.2268 38.7485 40.1598C38.7477 40.0929 38.7179 40.0234 38.6595 39.9516L37.3368 38.3309L37.9584 37.9167L39.2832 39.5401C39.4174 39.7046 39.5007 39.857 39.5331 39.9975C39.5646 40.1386 39.5548 40.2714 39.5038 40.3958C39.454 40.5196 39.3745 40.6346 39.2655 40.741C39.1558 40.8465 39.0264 40.949 38.8775 41.0485Z" fill="black"/>
<path d="M40.9887 39.402L40.4292 39.9111L38.7895 37.1546L39.4685 36.5366L42.5296 37.9997L41.9664 38.5123L41.4194 38.2373L40.6781 38.9118L40.9887 39.402ZM39.595 37.2709L40.3136 38.3571L40.8032 37.9116L39.595 37.2709Z" fill="black"/>
<path d="M43.5269 36.846L43.0647 37.4053L40.4107 35.6136L41.2442 34.6049C41.3277 34.5039 41.4187 34.4202 41.5172 34.3536C41.614 34.2873 41.7214 34.2445 41.8394 34.2252C41.9575 34.2059 42.0877 34.2163 42.23 34.2568C42.3712 34.2965 42.5277 34.3743 42.6992 34.4901C42.8157 34.5689 42.9076 34.6458 42.9748 34.7209C43.0409 34.7954 43.0882 34.868 43.1167 34.9388C43.1459 35.0087 43.1612 35.0768 43.1622 35.1426C43.1633 35.2085 43.1587 35.2732 43.1482 35.3366L44.5472 35.6114L44.0775 36.1797L42.8367 35.9018C42.8187 35.9236 42.798 35.9476 42.7748 35.974C42.7504 35.9997 42.728 36.0253 42.707 36.0504C42.6855 36.0765 42.6635 36.1031 42.6412 36.1302C42.6188 36.1572 42.598 36.1823 42.5786 36.2059L43.5269 36.846ZM41.4278 35.4292L42.09 35.8761L42.3782 35.5272C42.4106 35.488 42.4333 35.4497 42.4461 35.4122C42.4606 35.3746 42.4634 35.3358 42.4545 35.2958C42.4438 35.2561 42.422 35.2163 42.3891 35.1762C42.3544 35.1365 42.3052 35.0953 42.2415 35.0522C42.177 35.0086 42.1192 34.9777 42.0681 34.9597C42.0174 34.9431 41.9722 34.9377 41.9327 34.9436C41.8915 34.9498 41.853 34.9645 41.8173 34.9879C41.7823 35.0103 41.7486 35.0412 41.7162 35.0802L41.4278 35.4292Z" fill="black"/>
<path d="M45.6817 33.7768L44.9974 34.9143L42.0872 33.4842L42.7714 32.3468C42.8834 32.1605 43.0124 32.0259 43.1582 31.9428C43.3029 31.8593 43.4623 31.8139 43.6365 31.8067C43.809 31.7999 43.9928 31.8264 44.1881 31.8865C44.3828 31.9451 44.5848 32.0259 44.7941 32.1285C45.128 32.2925 45.381 32.4615 45.5532 32.6353C45.726 32.808 45.8219 32.9888 45.8409 33.1776C45.8612 33.367 45.808 33.5667 45.6817 33.7768ZM43.0647 33.1702L44.7593 34.0028L45.0384 33.5387C45.0965 33.4423 45.1122 33.351 45.086 33.2651C45.059 33.1802 44.9903 33.0943 44.8793 33.0076C44.7685 32.9209 44.618 32.8309 44.4278 32.7375C44.247 32.6487 44.0953 32.5858 43.9725 32.5489C43.8491 32.5105 43.7483 32.4937 43.6699 32.4986C43.5906 32.5029 43.5259 32.5232 43.4755 32.5591C43.4245 32.5959 43.3806 32.6449 43.3439 32.706L43.0647 33.1702Z" fill="black"/>
<path d="M46.7922 31.5468L46.5266 32.223L43.7425 30.3621L44.0649 29.5414L47.5241 29.6844L47.2565 30.3651L46.6319 30.3273L46.2798 31.2232L46.7922 31.5468ZM44.5258 30.1567L45.6885 30.8621L45.9209 30.2704L44.5258 30.1567Z" fill="black"/>
<path d="M0.48877 23.6443C0.48877 23.0069 1.06049 22.4903 1.76557 22.4902C2.47082 22.4902 3.04237 23.0069 3.04237 23.6443C3.04237 24.2817 2.47065 24.7983 1.76557 24.7983C1.06032 24.7983 0.48877 24.2816 0.48877 23.6443Z" fill="black"/>
<path d="M45.9575 23.6443C45.9575 23.0069 46.5292 22.4903 47.2343 22.4902C47.9395 22.4902 48.5111 23.0069 48.5111 23.6443C48.5111 24.2817 47.9394 24.7983 47.2343 24.7983C46.529 24.7983 45.9575 24.2816 45.9575 23.6443Z" fill="black"/>
</svg>
